<svg width="797" height="106" viewBox="0 0 797 106" fill="none" xmlns="http://www.w3.org/2000/svg">
<path d="M80.616 83.416H37.992L30.072 103H0.984L45.48 2.19999H73.56L118.2 103H88.536L80.616 83.416ZM72.264 62.392L59.304 30.136L46.344 62.392H72.264ZM203.755 50.44C209.515 52.456 214.027 55.624 217.291 59.944C220.555 64.168 222.187 69.304 222.187 75.352C222.187 84.184 218.635 91 211.531 95.8C204.427 100.6 194.155 103 180.715 103H126.283V2.19999H177.835C190.699 2.19999 200.491 4.59999 207.211 9.39999C213.931 14.104 217.291 20.488 217.291 28.552C217.291 33.352 216.091 37.672 213.691 41.512C211.387 45.256 208.075 48.232 203.755 50.44ZM154.507 22.792V42.232H174.091C183.691 42.232 188.491 38.968 188.491 32.44C188.491 26.008 183.691 22.792 174.091 22.792H154.507ZM178.411 82.408C188.395 82.408 193.387 79 193.387 72.184C193.387 65.368 188.395 61.96 178.411 61.96H154.507V82.408H178.411ZM287.787 105.016C277.131 105.016 267.531 102.76 258.987 98.248C250.539 93.736 243.867 87.496 238.971 79.528C234.171 71.56 231.771 62.584 231.771 52.6C231.771 42.616 234.171 33.64 238.971 25.672C243.867 17.704 250.539 11.464 258.987 6.95199C267.531 2.43999 277.131 0.183993 287.787 0.183993C298.443 0.183993 307.995 2.43999 316.443 6.95199C324.987 11.464 331.659 17.704 336.459 25.672C341.355 33.64 343.803 42.616 343.803 52.6C343.803 62.584 341.355 71.56 336.459 79.528C331.659 87.496 324.987 93.736 316.443 98.248C307.995 102.76 298.443 105.016 287.787 105.016ZM287.787 81.4C292.875 81.4 297.483 80.2 301.611 77.8C305.739 75.4 309.003 72.04 311.403 67.72C313.803 63.304 315.003 58.264 315.003 52.6C315.003 46.936 313.803 41.944 311.403 37.624C309.003 33.208 305.739 29.8 301.611 27.4C297.483 25 292.875 23.8 287.787 23.8C282.699 23.8 278.091 25 273.963 27.4C269.835 29.8 266.571 33.208 264.171 37.624C261.771 41.944 260.571 46.936 260.571 52.6C260.571 58.264 261.771 63.304 264.171 67.72C266.571 72.04 269.835 75.4 273.963 77.8C278.091 80.2 282.699 81.4 287.787 81.4ZM405.248 105.016C390.272 105.016 378.608 100.936 370.256 92.776C362 84.616 357.872 73.048 357.872 58.072V2.19999H386.384V57.208C386.384 73.336 392.768 81.4 405.536 81.4C418.208 81.4 424.544 73.336 424.544 57.208V2.19999H452.624V58.072C452.624 73.048 448.448 84.616 440.096 92.776C431.84 100.936 420.224 105.016 405.248 105.016ZM491.849 24.808H460.889V2.19999H551.177V24.808H520.361V103H491.849V24.808ZM650.217 105.016C635.241 105.016 623.577 100.936 615.225 92.776C606.969 84.616 602.841 73.048 602.841 58.072V2.19999H631.353V57.208C631.353 73.336 637.737 81.4 650.505 81.4C663.177 81.4 669.513 73.336 669.513 57.208V2.19999H697.593V58.072C697.593 73.048 693.417 84.616 685.065 92.776C676.809 100.936 665.193 105.016 650.217 105.016ZM752.332 105.016C744.172 105.016 736.252 104.008 728.572 101.992C720.892 99.976 714.652 97.288 709.852 93.928L719.212 72.904C723.724 75.88 728.956 78.28 734.908 80.104C740.86 81.928 746.716 82.84 752.476 82.84C763.42 82.84 768.892 80.104 768.892 74.632C768.892 71.752 767.308 69.64 764.14 68.296C761.068 66.856 756.076 65.368 749.164 63.832C741.58 62.2 735.244 60.472 730.156 58.648C725.068 56.728 720.7 53.704 717.052 49.576C713.404 45.448 711.58 39.88 711.58 32.872C711.58 26.728 713.26 21.208 716.62 16.312C719.98 11.32 724.972 7.384 731.596 4.504C738.316 1.62399 746.524 0.183993 756.22 0.183993C762.844 0.183993 769.372 0.951995 775.804 2.488C782.236 3.928 787.9 6.08799 792.796 8.96799L784.012 30.136C774.412 24.952 765.1 22.36 756.076 22.36C750.412 22.36 746.284 23.224 743.692 24.952C741.1 26.584 739.804 28.744 739.804 31.432C739.804 34.12 741.34 36.136 744.412 37.48C747.484 38.824 752.428 40.216 759.244 41.656C766.924 43.288 773.26 45.064 778.252 46.984C783.34 48.808 787.708 51.784 791.356 55.912C795.1 59.944 796.972 65.464 796.972 72.472C796.972 78.52 795.292 83.992 791.932 88.888C788.572 93.784 783.532 97.72 776.812 100.696C770.092 103.576 761.932 105.016 752.332 105.016Z" fill="#E94F37"/>
</svg>
