<svg width="734" height="106" viewBox="0 0 734 106" fill="none" xmlns="http://www.w3.org/2000/svg">
<path d="M56.336 105.016C45.776 105.016 36.272 102.808 27.824 98.392C19.472 93.88 12.896 87.64 8.096 79.672C3.296 71.704 0.896 62.68 0.896 52.6C0.896 42.52 3.296 33.496 8.096 25.528C12.896 17.56 19.472 11.368 27.824 6.95199C36.272 2.43999 45.776 0.183993 56.336 0.183993C65.552 0.183993 73.856 1.816 81.248 5.08C88.64 8.344 94.784 13.048 99.68 19.192L81.536 35.608C75.008 27.736 67.088 23.8 57.776 23.8C52.304 23.8 47.408 25 43.088 27.4C38.864 29.8 35.552 33.208 33.152 37.624C30.848 41.944 29.696 46.936 29.696 52.6C29.696 58.264 30.848 63.304 33.152 67.72C35.552 72.04 38.864 75.4 43.088 77.8C47.408 80.2 52.304 81.4 57.776 81.4C67.088 81.4 75.008 77.464 81.536 69.592L99.68 86.008C94.784 92.152 88.64 96.856 81.248 100.12C73.856 103.384 65.552 105.016 56.336 105.016ZM161.115 105.016C150.459 105.016 140.859 102.76 132.315 98.248C123.867 93.736 117.195 87.496 112.299 79.528C107.499 71.56 105.099 62.584 105.099 52.6C105.099 42.616 107.499 33.64 112.299 25.672C117.195 17.704 123.867 11.464 132.315 6.95199C140.859 2.43999 150.459 0.183993 161.115 0.183993C171.771 0.183993 181.323 2.43999 189.771 6.95199C198.315 11.464 204.987 17.704 209.787 25.672C214.683 33.64 217.131 42.616 217.131 52.6C217.131 62.584 214.683 71.56 209.787 79.528C204.987 87.496 198.315 93.736 189.771 98.248C181.323 102.76 171.771 105.016 161.115 105.016ZM161.115 81.4C166.203 81.4 170.811 80.2 174.939 77.8C179.067 75.4 182.331 72.04 184.731 67.72C187.131 63.304 188.331 58.264 188.331 52.6C188.331 46.936 187.131 41.944 184.731 37.624C182.331 33.208 179.067 29.8 174.939 27.4C170.811 25 166.203 23.8 161.115 23.8C156.027 23.8 151.419 25 147.291 27.4C143.163 29.8 139.899 33.208 137.499 37.624C135.099 41.944 133.899 46.936 133.899 52.6C133.899 58.264 135.099 63.304 137.499 67.72C139.899 72.04 143.163 75.4 147.291 77.8C151.419 80.2 156.027 81.4 161.115 81.4ZM327.968 2.19999V103H304.496L260 49.288V103H232.064V2.19999H255.536L300.032 55.912V2.19999H327.968ZM369.536 24.808H338.576V2.19999H428.864V24.808H398.048V103H369.536V24.808ZM520.414 80.968V103H439.486V2.19999H518.542V24.232H467.71V41.224H512.494V62.536H467.71V80.968H520.414ZM632.14 2.19999V103H608.668L564.172 49.288V103H536.236V2.19999H559.708L604.204 55.912V2.19999H632.14ZM673.708 24.808H642.748V2.19999H733.036V24.808H702.22V103H673.708V24.808Z" fill="black"/>
</svg>
