<svg width="313" height="128" viewBox="0 0 313 128" fill="none" xmlns="http://www.w3.org/2000/svg">
<path d="M28.592 24.232V46.408H73.088V68.44H28.592V103H0.08V2.19999H79.136V24.232H28.592ZM156.069 83.416H113.445L105.525 103H76.4371L120.933 2.19999H149.013L193.653 103H163.989L156.069 83.416ZM147.717 62.392L134.757 30.136L121.797 62.392H147.717ZM312.362 114.664C309.002 118.792 304.874 121.912 299.978 124.024C295.178 126.232 289.898 127.336 284.138 127.336C278.57 127.336 273.53 126.616 269.018 125.176C264.506 123.736 259.946 121.336 255.338 117.976C250.826 114.712 245.738 110.104 240.074 104.152C231.338 102.712 223.562 99.592 216.746 94.792C209.93 89.992 204.602 83.944 200.762 76.648C197.018 69.352 195.146 61.336 195.146 52.6C195.146 42.616 197.546 33.64 202.346 25.672C207.242 17.704 213.914 11.464 222.362 6.95199C230.906 2.43999 240.506 0.183993 251.162 0.183993C261.818 0.183993 271.37 2.43999 279.818 6.95199C288.362 11.464 295.034 17.704 299.834 25.672C304.73 33.64 307.178 42.616 307.178 52.6C307.178 63.928 304.058 73.96 297.818 82.696C291.674 91.336 283.37 97.528 272.906 101.272C274.826 103.384 276.698 104.872 278.522 105.736C280.442 106.6 282.506 107.032 284.714 107.032C290.378 107.032 295.466 104.68 299.978 99.976L312.362 114.664ZM223.946 52.6C223.946 58.264 225.146 63.304 227.546 67.72C229.946 72.04 233.21 75.4 237.338 77.8C241.466 80.2 246.074 81.4 251.162 81.4C256.25 81.4 260.858 80.2 264.986 77.8C269.114 75.4 272.378 72.04 274.778 67.72C277.178 63.304 278.378 58.264 278.378 52.6C278.378 46.936 277.178 41.944 274.778 37.624C272.378 33.208 269.114 29.8 264.986 27.4C260.858 25 256.25 23.8 251.162 23.8C246.074 23.8 241.466 25 237.338 27.4C233.21 29.8 229.946 33.208 227.546 37.624C225.146 41.944 223.946 46.936 223.946 52.6Z" fill="#E94F37"/>
</svg>
