<svg width="1920" height="1080" viewBox="0 0 1920 1080" fill="none" xmlns="http://www.w3.org/2000/svg">
<g clip-path="url(#clip0)">
<path d="M1920 -1.52588e-05H0V1080H1920V-1.52588e-05Z" fill="#0C1235"/>
<path d="M-9 335.5C86.2691 335.5 163.5 258.269 163.5 163C163.5 67.7309 86.2691 -9.50002 -9 -9.50002C-104.269 -9.50002 -181.5 67.7309 -181.5 163C-181.5 258.269 -104.269 335.5 -9 335.5Z" stroke="#707070"/>
<path d="M12 347.5C107.269 347.5 184.5 270.269 184.5 175C184.5 79.7309 107.269 2.49998 12 2.49998C-83.2691 2.49998 -160.5 79.7309 -160.5 175C-160.5 270.269 -83.2691 347.5 12 347.5Z" stroke="#707070"/>
<path d="M35 358.5C130.269 358.5 207.5 281.269 207.5 186C207.5 90.7309 130.269 13.5 35 13.5C-60.2691 13.5 -137.5 90.7309 -137.5 186C-137.5 281.269 -60.2691 358.5 35 358.5Z" stroke="#707070"/>
<path d="M55 378.5C150.269 378.5 227.5 301.269 227.5 206C227.5 110.731 150.269 33.5 55 33.5C-40.2691 33.5 -117.5 110.731 -117.5 206C-117.5 301.269 -40.2691 378.5 55 378.5Z" stroke="#707070"/>
<path d="M348 928.5C443.269 928.5 520.5 851.269 520.5 756C520.5 660.731 443.269 583.5 348 583.5C252.731 583.5 175.5 660.731 175.5 756C175.5 851.269 252.731 928.5 348 928.5Z" stroke="#707070"/>
<path d="M369 940.5C464.269 940.5 541.5 863.269 541.5 768C541.5 672.731 464.269 595.5 369 595.5C273.731 595.5 196.5 672.731 196.5 768C196.5 863.269 273.731 940.5 369 940.5Z" stroke="#707070"/>
<path d="M392 951.5C487.269 951.5 564.5 874.269 564.5 779C564.5 683.731 487.269 606.5 392 606.5C296.731 606.5 219.5 683.731 219.5 779C219.5 874.269 296.731 951.5 392 951.5Z" stroke="#707070"/>
<path d="M412 971.5C507.269 971.5 584.5 894.269 584.5 799C584.5 703.731 507.269 626.5 412 626.5C316.731 626.5 239.5 703.731 239.5 799C239.5 894.269 316.731 971.5 412 971.5Z" stroke="#707070"/>
<path d="M76 396.5C171.269 396.5 248.5 319.269 248.5 224C248.5 128.731 171.269 51.5 76 51.5C-19.2691 51.5 -96.5 128.731 -96.5 224C-96.5 319.269 -19.2691 396.5 76 396.5Z" stroke="#707070"/>
<path d="M97 408.5C192.269 408.5 269.5 331.269 269.5 236C269.5 140.731 192.269 63.5 97 63.5C1.73088 63.5 -75.5 140.731 -75.5 236C-75.5 331.269 1.73088 408.5 97 408.5Z" stroke="#707070"/>
<path d="M120 419.5C215.269 419.5 292.5 342.269 292.5 247C292.5 151.731 215.269 74.5 120 74.5C24.7309 74.5 -52.5 151.731 -52.5 247C-52.5 342.269 24.7309 419.5 120 419.5Z" stroke="#707070"/>
<path d="M140 439.5C235.269 439.5 312.5 362.269 312.5 267C312.5 171.731 235.269 94.5 140 94.5C44.7309 94.5 -32.5 171.731 -32.5 267C-32.5 362.269 44.7309 439.5 140 439.5Z" stroke="#707070"/>
<path d="M2018 335.5C2113.27 335.5 2190.5 258.269 2190.5 163C2190.5 67.7309 2113.27 -9.50002 2018 -9.50002C1922.73 -9.50002 1845.5 67.7309 1845.5 163C1845.5 258.269 1922.73 335.5 2018 335.5Z" stroke="#707070"/>
<path d="M1997 347.5C2092.27 347.5 2169.5 270.269 2169.5 175C2169.5 79.7309 2092.27 2.49998 1997 2.49998C1901.73 2.49998 1824.5 79.7309 1824.5 175C1824.5 270.269 1901.73 347.5 1997 347.5Z" stroke="#707070"/>
<path d="M1974 358.5C2069.27 358.5 2146.5 281.269 2146.5 186C2146.5 90.7309 2069.27 13.5 1974 13.5C1878.73 13.5 1801.5 90.7309 1801.5 186C1801.5 281.269 1878.73 358.5 1974 358.5Z" stroke="#707070"/>
<path d="M1954 378.5C2049.27 378.5 2126.5 301.269 2126.5 206C2126.5 110.731 2049.27 33.5 1954 33.5C1858.73 33.5 1781.5 110.731 1781.5 206C1781.5 301.269 1858.73 378.5 1954 378.5Z" stroke="#707070"/>
<path d="M1661 928.5C1756.27 928.5 1833.5 851.269 1833.5 756C1833.5 660.731 1756.27 583.5 1661 583.5C1565.73 583.5 1488.5 660.731 1488.5 756C1488.5 851.269 1565.73 928.5 1661 928.5Z" stroke="#707070"/>
<path d="M1640 940.5C1735.27 940.5 1812.5 863.269 1812.5 768C1812.5 672.731 1735.27 595.5 1640 595.5C1544.73 595.5 1467.5 672.731 1467.5 768C1467.5 863.269 1544.73 940.5 1640 940.5Z" stroke="#707070"/>
<path d="M1617 951.5C1712.27 951.5 1789.5 874.269 1789.5 779C1789.5 683.731 1712.27 606.5 1617 606.5C1521.73 606.5 1444.5 683.731 1444.5 779C1444.5 874.269 1521.73 951.5 1617 951.5Z" stroke="#707070"/>
<path d="M1597 971.5C1692.27 971.5 1769.5 894.269 1769.5 799C1769.5 703.731 1692.27 626.5 1597 626.5C1501.73 626.5 1424.5 703.731 1424.5 799C1424.5 894.269 1501.73 971.5 1597 971.5Z" stroke="#707070"/>
<path d="M1933 396.5C2028.27 396.5 2105.5 319.269 2105.5 224C2105.5 128.731 2028.27 51.5 1933 51.5C1837.73 51.5 1760.5 128.731 1760.5 224C1760.5 319.269 1837.73 396.5 1933 396.5Z" stroke="#707070"/>
<path d="M1912 408.5C2007.27 408.5 2084.5 331.269 2084.5 236C2084.5 140.731 2007.27 63.5 1912 63.5C1816.73 63.5 1739.5 140.731 1739.5 236C1739.5 331.269 1816.73 408.5 1912 408.5Z" stroke="#707070"/>
<path d="M1889 419.5C1984.27 419.5 2061.5 342.269 2061.5 247C2061.5 151.731 1984.27 74.5 1889 74.5C1793.73 74.5 1716.5 151.731 1716.5 247C1716.5 342.269 1793.73 419.5 1889 419.5Z" stroke="#707070"/>
<path d="M1869 439.5C1964.27 439.5 2041.5 362.269 2041.5 267C2041.5 171.731 1964.27 94.5 1869 94.5C1773.73 94.5 1696.5 171.731 1696.5 267C1696.5 362.269 1773.73 439.5 1869 439.5Z" stroke="#707070"/>
<g opacity="0.63">
<g opacity="0.6">
<path opacity="0.6" d="M144.5 0.499985H0.5V144.5H144.5V0.499985Z" stroke="#707070"/>
</g>
<g opacity="0.63">
<g opacity="0.6">
<path opacity="0.6" d="M288.5 0.499985H144.5V144.5H288.5V0.499985Z" stroke="#707070"/>
</g>
</g>
<g opacity="0.63">
<g opacity="0.6">
<path opacity="0.6" d="M432.5 0.499985H288.5V144.5H432.5V0.499985Z" stroke="#707070"/>
</g>
</g>
<g opacity="0.63">
<g opacity="0.6">
<path opacity="0.6" d="M576.5 0.499985H432.5V144.5H576.5V0.499985Z" stroke="#707070"/>
</g>
</g>
<g opacity="0.63">
<g opacity="0.6">
<path opacity="0.6" d="M720.5 0.499985H576.5V144.5H720.5V0.499985Z" stroke="#707070"/>
</g>
</g>
<g opacity="0.63">
<g opacity="0.6">
<path opacity="0.6" d="M864.5 0.499985H720.5V144.5H864.5V0.499985Z" stroke="#707070"/>
</g>
</g>
<g opacity="0.63">
<g opacity="0.6">
<path opacity="0.6" d="M1008.5 0.499985H864.5V144.5H1008.5V0.499985Z" stroke="#707070"/>
</g>
</g>
<g opacity="0.63">
<g opacity="0.6">
<path opacity="0.6" d="M1152.5 0.499985H1008.5V144.5H1152.5V0.499985Z" stroke="#707070"/>
</g>
</g>
<g opacity="0.63">
<g opacity="0.6">
<path opacity="0.6" d="M1296.5 0.499985H1152.5V144.5H1296.5V0.499985Z" stroke="#707070"/>
</g>
</g>
<g opacity="0.63">
<g opacity="0.6">
<path opacity="0.6" d="M1440.5 0.499985H1296.5V144.5H1440.5V0.499985Z" stroke="#707070"/>
</g>
</g>
<g opacity="0.63">
<g opacity="0.6">
<path opacity="0.6" d="M1584.5 0.499985H1440.5V144.5H1584.5V0.499985Z" stroke="#707070"/>
</g>
</g>
<g opacity="0.63">
<g opacity="0.6">
<path opacity="0.6" d="M1728.5 0.499985H1584.5V144.5H1728.5V0.499985Z" stroke="#707070"/>
</g>
</g>
<g opacity="0.63">
<g opacity="0.6">
<path opacity="0.6" d="M1872.5 0.499985H1728.5V144.5H1872.5V0.499985Z" stroke="#707070"/>
</g>
</g>
<g opacity="0.63">
<g opacity="0.6">
<path opacity="0.6" d="M2016.5 0.499985H1872.5V144.5H2016.5V0.499985Z" stroke="#707070"/>
</g>
</g>
<g opacity="0.63">
<g opacity="0.6">
<path opacity="0.6" d="M144.5 144.5H0.5V288.5H144.5V144.5Z" stroke="#707070"/>
</g>
</g>
<g opacity="0.63">
<g opacity="0.6">
<path opacity="0.6" d="M288.5 144.5H144.5V288.5H288.5V144.5Z" stroke="#707070"/>
</g>
</g>
<g opacity="0.63">
<g opacity="0.6">
<path opacity="0.6" d="M432.5 144.5H288.5V288.5H432.5V144.5Z" stroke="#707070"/>
</g>
</g>
<g opacity="0.63">
<g opacity="0.6">
<path opacity="0.6" d="M576.5 144.5H432.5V288.5H576.5V144.5Z" stroke="#707070"/>
</g>
</g>
<g opacity="0.63">
<g opacity="0.6">
<path opacity="0.6" d="M720.5 144.5H576.5V288.5H720.5V144.5Z" stroke="#707070"/>
</g>
</g>
<g opacity="0.63">
<g opacity="0.6">
<path opacity="0.6" d="M864.5 144.5H720.5V288.5H864.5V144.5Z" stroke="#707070"/>
</g>
</g>
<g opacity="0.63">
<g opacity="0.6">
<path opacity="0.6" d="M1008.5 144.5H864.5V288.5H1008.5V144.5Z" stroke="#707070"/>
</g>
</g>
<g opacity="0.63">
<g opacity="0.6">
<path opacity="0.6" d="M1152.5 144.5H1008.5V288.5H1152.5V144.5Z" stroke="#707070"/>
</g>
</g>
<g opacity="0.63">
<g opacity="0.6">
<path opacity="0.6" d="M1296.5 144.5H1152.5V288.5H1296.5V144.5Z" stroke="#707070"/>
</g>
</g>
<g opacity="0.63">
<g opacity="0.6">
<path opacity="0.6" d="M1440.5 144.5H1296.5V288.5H1440.5V144.5Z" stroke="#707070"/>
</g>
</g>
<g opacity="0.63">
<g opacity="0.6">
<path opacity="0.6" d="M1584.5 144.5H1440.5V288.5H1584.5V144.5Z" stroke="#707070"/>
</g>
</g>
<g opacity="0.63">
<g opacity="0.6">
<path opacity="0.6" d="M1728.5 144.5H1584.5V288.5H1728.5V144.5Z" stroke="#707070"/>
</g>
</g>
<g opacity="0.63">
<g opacity="0.6">
<path opacity="0.6" d="M1872.5 144.5H1728.5V288.5H1872.5V144.5Z" stroke="#707070"/>
</g>
</g>
<g opacity="0.63">
<g opacity="0.6">
<path opacity="0.6" d="M2016.5 144.5H1872.5V288.5H2016.5V144.5Z" stroke="#707070"/>
</g>
</g>
<g opacity="0.63">
<g opacity="0.6">
<path opacity="0.6" d="M144.5 288.5H0.5V432.5H144.5V288.5Z" stroke="#707070"/>
</g>
</g>
<g opacity="0.63">
<g opacity="0.6">
<path opacity="0.6" d="M288.5 288.5H144.5V432.5H288.5V288.5Z" stroke="#707070"/>
</g>
</g>
<g opacity="0.63">
<g opacity="0.6">
<path opacity="0.6" d="M432.5 288.5H288.5V432.5H432.5V288.5Z" stroke="#707070"/>
</g>
</g>
<g opacity="0.63">
<g opacity="0.6">
<path opacity="0.6" d="M576.5 288.5H432.5V432.5H576.5V288.5Z" stroke="#707070"/>
</g>
</g>
<g opacity="0.63">
<g opacity="0.6">
<path opacity="0.6" d="M720.5 288.5H576.5V432.5H720.5V288.5Z" stroke="#707070"/>
</g>
</g>
<g opacity="0.63">
<g opacity="0.6">
<path opacity="0.6" d="M864.5 288.5H720.5V432.5H864.5V288.5Z" stroke="#707070"/>
</g>
</g>
<g opacity="0.63">
<g opacity="0.6">
<path opacity="0.6" d="M1008.5 288.5H864.5V432.5H1008.5V288.5Z" stroke="#707070"/>
</g>
</g>
<g opacity="0.63">
<g opacity="0.6">
<path opacity="0.6" d="M1152.5 288.5H1008.5V432.5H1152.5V288.5Z" stroke="#707070"/>
</g>
</g>
<g opacity="0.63">
<g opacity="0.6">
<path opacity="0.6" d="M1296.5 288.5H1152.5V432.5H1296.5V288.5Z" stroke="#707070"/>
</g>
</g>
<g opacity="0.63">
<g opacity="0.6">
<path opacity="0.6" d="M1440.5 288.5H1296.5V432.5H1440.5V288.5Z" stroke="#707070"/>
</g>
</g>
<g opacity="0.63">
<g opacity="0.6">
<path opacity="0.6" d="M1584.5 288.5H1440.5V432.5H1584.5V288.5Z" stroke="#707070"/>
</g>
</g>
<g opacity="0.63">
<g opacity="0.6">
<path opacity="0.6" d="M1728.5 288.5H1584.5V432.5H1728.5V288.5Z" stroke="#707070"/>
</g>
</g>
<g opacity="0.63">
<g opacity="0.6">
<path opacity="0.6" d="M1872.5 288.5H1728.5V432.5H1872.5V288.5Z" stroke="#707070"/>
</g>
</g>
<g opacity="0.63">
<g opacity="0.6">
<path opacity="0.6" d="M2016.5 288.5H1872.5V432.5H2016.5V288.5Z" stroke="#707070"/>
</g>
</g>
<g opacity="0.63">
<g opacity="0.6">
<path opacity="0.6" d="M144.5 432.5H0.5V576.5H144.5V432.5Z" stroke="#707070"/>
</g>
</g>
<g opacity="0.63">
<g opacity="0.6">
<path opacity="0.6" d="M288.5 432.5H144.5V576.5H288.5V432.5Z" stroke="#707070"/>
</g>
</g>
<g opacity="0.63">
<g opacity="0.6">
<path opacity="0.6" d="M432.5 432.5H288.5V576.5H432.5V432.5Z" stroke="#707070"/>
</g>
</g>
<g opacity="0.63">
<g opacity="0.6">
<path opacity="0.6" d="M576.5 432.5H432.5V576.5H576.5V432.5Z" stroke="#707070"/>
</g>
</g>
<g opacity="0.63">
<g opacity="0.6">
<path opacity="0.6" d="M720.5 432.5H576.5V576.5H720.5V432.5Z" stroke="#707070"/>
</g>
</g>
<g opacity="0.63">
<g opacity="0.6">
<path opacity="0.6" d="M864.5 432.5H720.5V576.5H864.5V432.5Z" stroke="#707070"/>
</g>
</g>
<g opacity="0.63">
<g opacity="0.6">
<path opacity="0.6" d="M1008.5 432.5H864.5V576.5H1008.5V432.5Z" stroke="#707070"/>
</g>
</g>
<g opacity="0.63">
<g opacity="0.6">
<path opacity="0.6" d="M1152.5 432.5H1008.5V576.5H1152.5V432.5Z" stroke="#707070"/>
</g>
</g>
<g opacity="0.63">
<g opacity="0.6">
<path opacity="0.6" d="M1296.5 432.5H1152.5V576.5H1296.5V432.5Z" stroke="#707070"/>
</g>
</g>
<g opacity="0.63">
<g opacity="0.6">
<path opacity="0.6" d="M1440.5 432.5H1296.5V576.5H1440.5V432.5Z" stroke="#707070"/>
</g>
</g>
<g opacity="0.63">
<g opacity="0.6">
<path opacity="0.6" d="M1584.5 432.5H1440.5V576.5H1584.5V432.5Z" stroke="#707070"/>
</g>
</g>
<g opacity="0.63">
<g opacity="0.6">
<path opacity="0.6" d="M1728.5 432.5H1584.5V576.5H1728.5V432.5Z" stroke="#707070"/>
</g>
</g>
<g opacity="0.63">
<g opacity="0.6">
<path opacity="0.6" d="M1872.5 432.5H1728.5V576.5H1872.5V432.5Z" stroke="#707070"/>
</g>
</g>
<g opacity="0.63">
<g opacity="0.6">
<path opacity="0.6" d="M2016.5 432.5H1872.5V576.5H2016.5V432.5Z" stroke="#707070"/>
</g>
</g>
<g opacity="0.63">
<g opacity="0.6">
<path opacity="0.6" d="M144.5 576.5H0.5V720.5H144.5V576.5Z" stroke="#707070"/>
</g>
</g>
<g opacity="0.63">
<g opacity="0.6">
<path opacity="0.6" d="M288.5 576.5H144.5V720.5H288.5V576.5Z" stroke="#707070"/>
</g>
</g>
<g opacity="0.63">
<g opacity="0.6">
<path opacity="0.6" d="M432.5 576.5H288.5V720.5H432.5V576.5Z" stroke="#707070"/>
</g>
</g>
<g opacity="0.63">
<g opacity="0.6">
<path opacity="0.6" d="M576.5 576.5H432.5V720.5H576.5V576.5Z" stroke="#707070"/>
</g>
</g>
<g opacity="0.63">
<g opacity="0.6">
<path opacity="0.6" d="M720.5 576.5H576.5V720.5H720.5V576.5Z" stroke="#707070"/>
</g>
</g>
<g opacity="0.63">
<g opacity="0.6">
<path opacity="0.6" d="M864.5 576.5H720.5V720.5H864.5V576.5Z" stroke="#707070"/>
</g>
</g>
<g opacity="0.63">
<g opacity="0.6">
<path opacity="0.6" d="M1008.5 576.5H864.5V720.5H1008.5V576.5Z" stroke="#707070"/>
</g>
</g>
<g opacity="0.63">
<g opacity="0.6">
<path opacity="0.6" d="M1152.5 576.5H1008.5V720.5H1152.5V576.5Z" stroke="#707070"/>
</g>
</g>
<g opacity="0.63">
<g opacity="0.6">
<path opacity="0.6" d="M1296.5 576.5H1152.5V720.5H1296.5V576.5Z" stroke="#707070"/>
</g>
</g>
<g opacity="0.63">
<g opacity="0.6">
<path opacity="0.6" d="M1440.5 576.5H1296.5V720.5H1440.5V576.5Z" stroke="#707070"/>
</g>
</g>
<g opacity="0.63">
<g opacity="0.6">
<path opacity="0.6" d="M1584.5 576.5H1440.5V720.5H1584.5V576.5Z" stroke="#707070"/>
</g>
</g>
<g opacity="0.63">
<g opacity="0.6">
<path opacity="0.6" d="M1728.5 576.5H1584.5V720.5H1728.5V576.5Z" stroke="#707070"/>
</g>
</g>
<g opacity="0.63">
<g opacity="0.6">
<path opacity="0.6" d="M1872.5 576.5H1728.5V720.5H1872.5V576.5Z" stroke="#707070"/>
</g>
</g>
<g opacity="0.63">
<g opacity="0.6">
<path opacity="0.6" d="M2016.5 576.5H1872.5V720.5H2016.5V576.5Z" stroke="#707070"/>
</g>
</g>
<g opacity="0.63">
<g opacity="0.6">
<path opacity="0.6" d="M144.5 720.5H0.5V864.5H144.5V720.5Z" stroke="#707070"/>
</g>
</g>
<g opacity="0.63">
<g opacity="0.6">
<path opacity="0.6" d="M288.5 720.5H144.5V864.5H288.5V720.5Z" stroke="#707070"/>
</g>
</g>
<g opacity="0.63">
<g opacity="0.6">
<path opacity="0.6" d="M432.5 720.5H288.5V864.5H432.5V720.5Z" stroke="#707070"/>
</g>
</g>
<g opacity="0.63">
<g opacity="0.6">
<path opacity="0.6" d="M576.5 720.5H432.5V864.5H576.5V720.5Z" stroke="#707070"/>
</g>
</g>
<g opacity="0.63">
<g opacity="0.6">
<path opacity="0.6" d="M720.5 720.5H576.5V864.5H720.5V720.5Z" stroke="#707070"/>
</g>
</g>
<g opacity="0.63">
<g opacity="0.6">
<path opacity="0.6" d="M864.5 720.5H720.5V864.5H864.5V720.5Z" stroke="#707070"/>
</g>
</g>
<g opacity="0.63">
<g opacity="0.6">
<path opacity="0.6" d="M1008.5 720.5H864.5V864.5H1008.5V720.5Z" stroke="#707070"/>
</g>
</g>
<g opacity="0.63">
<g opacity="0.6">
<path opacity="0.6" d="M1152.5 720.5H1008.5V864.5H1152.5V720.5Z" stroke="#707070"/>
</g>
</g>
<g opacity="0.63">
<g opacity="0.6">
<path opacity="0.6" d="M1296.5 720.5H1152.5V864.5H1296.5V720.5Z" stroke="#707070"/>
</g>
</g>
<g opacity="0.63">
<g opacity="0.6">
<path opacity="0.6" d="M1440.5 720.5H1296.5V864.5H1440.5V720.5Z" stroke="#707070"/>
</g>
</g>
<g opacity="0.63">
<g opacity="0.6">
<path opacity="0.6" d="M1584.5 720.5H1440.5V864.5H1584.5V720.5Z" stroke="#707070"/>
</g>
</g>
<g opacity="0.63">
<g opacity="0.6">
<path opacity="0.6" d="M1728.5 720.5H1584.5V864.5H1728.5V720.5Z" stroke="#707070"/>
</g>
</g>
<g opacity="0.63">
<g opacity="0.6">
<path opacity="0.6" d="M1872.5 720.5H1728.5V864.5H1872.5V720.5Z" stroke="#707070"/>
</g>
</g>
<g opacity="0.63">
<g opacity="0.6">
<path opacity="0.6" d="M2016.5 720.5H1872.5V864.5H2016.5V720.5Z" stroke="#707070"/>
</g>
</g>
<g opacity="0.63">
<g opacity="0.6">
<path opacity="0.6" d="M144.5 864.5H0.5V1008.5H144.5V864.5Z" stroke="#707070"/>
</g>
</g>
<g opacity="0.63">
<g opacity="0.6">
<path opacity="0.6" d="M288.5 864.5H144.5V1008.5H288.5V864.5Z" stroke="#707070"/>
</g>
</g>
<g opacity="0.63">
<g opacity="0.6">
<path opacity="0.6" d="M432.5 864.5H288.5V1008.5H432.5V864.5Z" stroke="#707070"/>
</g>
</g>
<g opacity="0.63">
<g opacity="0.6">
<path opacity="0.6" d="M576.5 864.5H432.5V1008.5H576.5V864.5Z" stroke="#707070"/>
</g>
</g>
<g opacity="0.63">
<g opacity="0.6">
<path opacity="0.6" d="M720.5 864.5H576.5V1008.5H720.5V864.5Z" stroke="#707070"/>
</g>
</g>
<g opacity="0.63">
<g opacity="0.6">
<path opacity="0.6" d="M864.5 864.5H720.5V1008.5H864.5V864.5Z" stroke="#707070"/>
</g>
</g>
<g opacity="0.63">
<g opacity="0.6">
<path opacity="0.6" d="M1008.5 864.5H864.5V1008.5H1008.5V864.5Z" stroke="#707070"/>
</g>
</g>
<g opacity="0.63">
<g opacity="0.6">
<path opacity="0.6" d="M1152.5 864.5H1008.5V1008.5H1152.5V864.5Z" stroke="#707070"/>
</g>
</g>
<g opacity="0.63">
<g opacity="0.6">
<path opacity="0.6" d="M1296.5 864.5H1152.5V1008.5H1296.5V864.5Z" stroke="#707070"/>
</g>
</g>
<g opacity="0.63">
<g opacity="0.6">
<path opacity="0.6" d="M1440.5 864.5H1296.5V1008.5H1440.5V864.5Z" stroke="#707070"/>
</g>
</g>
<g opacity="0.63">
<g opacity="0.6">
<path opacity="0.6" d="M1584.5 864.5H1440.5V1008.5H1584.5V864.5Z" stroke="#707070"/>
</g>
</g>
<g opacity="0.63">
<g opacity="0.6">
<path opacity="0.6" d="M1728.5 864.5H1584.5V1008.5H1728.5V864.5Z" stroke="#707070"/>
</g>
</g>
<g opacity="0.63">
<g opacity="0.6">
<path opacity="0.6" d="M1872.5 864.5H1728.5V1008.5H1872.5V864.5Z" stroke="#707070"/>
</g>
</g>
<g opacity="0.63">
<g opacity="0.6">
<path opacity="0.6" d="M2016.5 864.5H1872.5V1008.5H2016.5V864.5Z" stroke="#707070"/>
</g>
</g>
<g opacity="0.63">
<g opacity="0.6">
<path opacity="0.6" d="M144.5 1008.5H0.5V1152.5H144.5V1008.5Z" stroke="#707070"/>
</g>
</g>
<g opacity="0.63">
<g opacity="0.6">
<path opacity="0.6" d="M288.5 1008.5H144.5V1152.5H288.5V1008.5Z" stroke="#707070"/>
</g>
</g>
<g opacity="0.63">
<g opacity="0.6">
<path opacity="0.6" d="M432.5 1008.5H288.5V1152.5H432.5V1008.5Z" stroke="#707070"/>
</g>
</g>
<g opacity="0.63">
<g opacity="0.6">
<path opacity="0.6" d="M576.5 1008.5H432.5V1152.5H576.5V1008.5Z" stroke="#707070"/>
</g>
</g>
<g opacity="0.63">
<g opacity="0.6">
<path opacity="0.6" d="M720.5 1008.5H576.5V1152.5H720.5V1008.5Z" stroke="#707070"/>
</g>
</g>
<g opacity="0.63">
<g opacity="0.6">
<path opacity="0.6" d="M864.5 1008.5H720.5V1152.5H864.5V1008.5Z" stroke="#707070"/>
</g>
</g>
<g opacity="0.63">
<g opacity="0.6">
<path opacity="0.6" d="M1008.5 1008.5H864.5V1152.5H1008.5V1008.5Z" stroke="#707070"/>
</g>
</g>
<g opacity="0.63">
<g opacity="0.6">
<path opacity="0.6" d="M1152.5 1008.5H1008.5V1152.5H1152.5V1008.5Z" stroke="#707070"/>
</g>
</g>
<g opacity="0.63">
<g opacity="0.6">
<path opacity="0.6" d="M1296.5 1008.5H1152.5V1152.5H1296.5V1008.5Z" stroke="#707070"/>
</g>
</g>
<g opacity="0.63">
<g opacity="0.6">
<path opacity="0.6" d="M1440.5 1008.5H1296.5V1152.5H1440.5V1008.5Z" stroke="#707070"/>
</g>
</g>
<g opacity="0.63">
<g opacity="0.6">
<path opacity="0.6" d="M1584.5 1008.5H1440.5V1152.5H1584.5V1008.5Z" stroke="#707070"/>
</g>
</g>
<g opacity="0.63">
<g opacity="0.6">
<path opacity="0.6" d="M1728.5 1008.5H1584.5V1152.5H1728.5V1008.5Z" stroke="#707070"/>
</g>
</g>
<g opacity="0.63">
<g opacity="0.6">
<path opacity="0.6" d="M1872.5 1008.5H1728.5V1152.5H1872.5V1008.5Z" stroke="#707070"/>
</g>
</g>
<g opacity="0.63">
<g opacity="0.6">
<path opacity="0.6" d="M2016.5 1008.5H1872.5V1152.5H2016.5V1008.5Z" stroke="#707070"/>
</g>
</g>
</g>
<path d="M834 -130H724V274H834V-130Z" stroke="#F2C92E" stroke-width="8"/>
<path d="M1030.67 529.001L550.331 529.029L790.475 944.972L1030.67 529.001ZM1044.53 521L790.475 960.971L536.475 521.03L1044.53 521Z" fill="#F2C92E"/>
<path d="M1138.5 722C1271.88 722 1380 613.877 1380 480.5C1380 347.123 1271.88 239 1138.5 239C1005.12 239 897 347.123 897 480.5C897 613.877 1005.12 722 1138.5 722Z" stroke="#F2C92E" stroke-width="8"/>
<path d="M152.297 -165.368L-175.655 -46.0025L-30.2967 353.367L297.656 234.002L152.297 -165.368Z" stroke="#F2C92E" stroke-width="9"/>
<path d="M2170.07 29.3715L1856.32 -123.491L1670.17 258.584L1983.92 411.446L2170.07 29.3715Z" stroke="#F2C92E" stroke-width="9"/>
<path d="M1920 -1.52588e-05H0V144H1920V-1.52588e-05Z" fill="#E94F37"/>
<path d="M293 22H26V113H293V22Z" stroke="#F2C92E" stroke-width="6"/>
<path d="M1893 22H1626V113H1893V22Z" stroke="#F2C92E" stroke-width="6"/>
<path d="M960 578C1071.56 578 1162 487.562 1162 376C1162 264.438 1071.56 174 960 174C848.438 174 758 264.438 758 376C758 487.562 848.438 578 960 578Z" fill="white"/>
<path d="M960 577.5C1071.29 577.5 1161.5 487.285 1161.5 376C1161.5 264.715 1071.29 174.5 960 174.5C848.715 174.5 758.5 264.715 758.5 376C758.5 487.285 848.715 577.5 960 577.5Z" stroke="#707070"/>
<path d="M820.286 322.7H827.612V385.664H866.42V392H820.286V322.7ZM907.524 392.594C900.66 392.594 894.423 391.076 888.813 388.04C883.269 384.938 878.913 380.714 875.745 375.368C872.643 370.022 871.092 364.016 871.092 357.35C871.092 350.684 872.643 344.678 875.745 339.332C878.913 333.986 883.269 329.795 888.813 326.759C894.423 323.657 900.66 322.106 907.524 322.106C914.388 322.106 920.559 323.624 926.037 326.66C931.581 329.696 935.937 333.92 939.105 339.332C942.273 344.678 943.857 350.684 943.857 357.35C943.857 364.016 942.273 370.055 939.105 375.467C935.937 380.813 931.581 385.004 926.037 388.04C920.559 391.076 914.388 392.594 907.524 392.594ZM907.524 386.06C913.002 386.06 917.952 384.839 922.374 382.397C926.796 379.889 930.261 376.457 932.769 372.101C935.277 367.679 936.531 362.762 936.531 357.35C936.531 351.938 935.277 347.054 932.769 342.698C930.261 338.276 926.796 334.844 922.374 332.402C917.952 329.894 913.002 328.64 907.524 328.64C902.046 328.64 897.063 329.894 892.575 332.402C888.153 334.844 884.655 338.276 882.081 342.698C879.573 347.054 878.319 351.938 878.319 357.35C878.319 362.762 879.573 367.679 882.081 372.101C884.655 376.457 888.153 379.889 892.575 382.397C897.063 384.839 902.046 386.06 907.524 386.06ZM1009.09 357.35H1016.11V383.783C1012.88 386.621 1009.05 388.799 1004.63 390.317C1000.21 391.835 995.555 392.594 990.671 392.594C983.741 392.594 977.504 391.076 971.96 388.04C966.416 385.004 962.06 380.813 958.892 375.467C955.724 370.055 954.14 364.016 954.14 357.35C954.14 350.684 955.724 344.678 958.892 339.332C962.06 333.92 966.416 329.696 971.96 326.66C977.504 323.624 983.774 322.106 990.77 322.106C996.05 322.106 1000.9 322.964 1005.32 324.68C1009.75 326.33 1013.47 328.805 1016.51 332.105L1011.96 336.758C1006.48 331.346 999.515 328.64 991.067 328.64C985.457 328.64 980.375 329.894 975.821 332.402C971.333 334.844 967.802 338.276 965.228 342.698C962.654 347.054 961.367 351.938 961.367 357.35C961.367 362.762 962.654 367.646 965.228 372.002C967.802 376.358 971.333 379.79 975.821 382.298C980.309 384.806 985.358 386.06 990.968 386.06C998.096 386.06 1004.14 384.278 1009.09 380.714V357.35ZM1067.14 392.594C1060.28 392.594 1054.04 391.076 1048.43 388.04C1042.89 384.938 1038.53 380.714 1035.36 375.368C1032.26 370.022 1030.71 364.016 1030.71 357.35C1030.71 350.684 1032.26 344.678 1035.36 339.332C1038.53 333.986 1042.89 329.795 1048.43 326.759C1054.04 323.657 1060.28 322.106 1067.14 322.106C1074.01 322.106 1080.18 323.624 1085.66 326.66C1091.2 329.696 1095.56 333.92 1098.72 339.332C1101.89 344.678 1103.48 350.684 1103.48 357.35C1103.48 364.016 1101.89 370.055 1098.72 375.467C1095.56 380.813 1091.2 385.004 1085.66 388.04C1080.18 391.076 1074.01 392.594 1067.14 392.594ZM1067.14 386.06C1072.62 386.06 1077.57 384.839 1081.99 382.397C1086.41 379.889 1089.88 376.457 1092.39 372.101C1094.9 367.679 1096.15 362.762 1096.15 357.35C1096.15 351.938 1094.9 347.054 1092.39 342.698C1089.88 338.276 1086.41 334.844 1081.99 332.402C1077.57 329.894 1072.62 328.64 1067.14 328.64C1061.66 328.64 1056.68 329.894 1052.19 332.402C1047.77 334.844 1044.27 338.276 1041.7 342.698C1039.19 347.054 1037.94 351.938 1037.94 357.35C1037.94 362.762 1039.19 367.679 1041.7 372.101C1044.27 376.457 1047.77 379.889 1052.19 382.397C1056.68 384.839 1061.66 386.06 1067.14 386.06Z" fill="#F2C92E"/>
<path d="M820.286 322.7V321.2H818.786V322.7H820.286ZM827.612 322.7H829.112V321.2H827.612V322.7ZM827.612 385.664H826.112V387.164H827.612V385.664ZM866.42 385.664H867.92V384.164H866.42V385.664ZM866.42 392V393.5H867.92V392H866.42ZM820.286 392H818.786V393.5H820.286V392ZM820.286 324.2H827.612V321.2H820.286V324.2ZM826.112 322.7V385.664H829.112V322.7H826.112ZM827.612 387.164H866.42V384.164H827.612V387.164ZM864.92 385.664V392H867.92V385.664H864.92ZM866.42 390.5H820.286V393.5H866.42V390.5ZM821.786 392V322.7H818.786V392H821.786ZM888.813 388.04L888.081 389.349L888.09 389.354L888.099 389.359L888.813 388.04ZM875.745 375.368L874.448 376.121L874.455 376.133L875.745 375.368ZM875.745 339.332L874.455 338.567L874.448 338.579L875.745 339.332ZM888.813 326.759L889.534 328.075L889.539 328.072L888.813 326.759ZM926.037 326.66L925.31 327.972L925.317 327.976L926.037 326.66ZM939.105 339.332L937.811 340.09L937.815 340.097L939.105 339.332ZM939.105 375.467L940.396 376.232L940.4 376.225L939.105 375.467ZM926.037 388.04L925.317 386.724L925.31 386.728L926.037 388.04ZM922.374 382.397L923.099 383.71L923.107 383.706L923.114 383.702L922.374 382.397ZM932.769 372.101L934.069 372.849L934.074 372.841L932.769 372.101ZM932.769 342.698L931.465 343.438L931.469 343.446L932.769 342.698ZM922.374 332.402L921.634 333.707L921.642 333.711L921.649 333.715L922.374 332.402ZM892.575 332.402L893.3 333.715L893.307 333.711L892.575 332.402ZM882.081 342.698L880.785 341.943L880.781 341.95L882.081 342.698ZM882.081 372.101L880.777 372.841L880.783 372.853L880.79 372.864L882.081 372.101ZM892.575 382.397L891.835 383.702L891.847 383.708L891.858 383.715L892.575 382.397ZM907.524 391.094C900.89 391.094 894.901 389.629 889.527 386.721L888.099 389.359C893.945 392.523 900.431 394.094 907.524 394.094V391.094ZM889.546 386.731C884.227 383.755 880.066 379.717 877.036 374.603L874.455 376.133C877.761 381.711 882.312 386.121 888.081 389.349L889.546 386.731ZM877.043 374.615C874.084 369.516 872.592 363.773 872.592 357.35H869.592C869.592 364.259 871.203 370.528 874.448 376.121L877.043 374.615ZM872.592 357.35C872.592 350.927 874.084 345.184 877.043 340.085L874.448 338.579C871.203 344.172 869.592 350.441 869.592 357.35H872.592ZM877.036 340.097C880.064 334.986 884.222 330.984 889.534 328.075L888.093 325.443C882.317 328.606 877.762 332.986 874.455 338.567L877.036 340.097ZM889.539 328.072C894.911 325.101 900.896 323.606 907.524 323.606V320.606C900.425 320.606 893.935 322.213 888.087 325.446L889.539 328.072ZM907.524 323.606C914.159 323.606 920.076 325.071 925.31 327.972L926.764 325.348C921.043 322.177 914.618 320.606 907.524 320.606V323.606ZM925.317 327.976C930.625 330.882 934.781 334.914 937.811 340.09L940.4 338.574C937.093 332.926 932.538 328.51 926.758 325.344L925.317 327.976ZM937.815 340.097C940.836 345.194 942.357 350.933 942.357 357.35H945.357C945.357 350.435 943.711 344.162 940.396 338.567L937.815 340.097ZM942.357 357.35C942.357 363.767 940.836 369.542 937.811 374.709L940.4 376.225C943.711 370.568 945.357 364.265 945.357 357.35H942.357ZM937.815 374.702C934.787 379.813 930.629 383.815 925.317 386.724L926.758 389.356C932.534 386.193 937.088 381.813 940.396 376.232L937.815 374.702ZM925.31 386.728C920.076 389.629 914.159 391.094 907.524 391.094V394.094C914.618 394.094 921.043 392.523 926.764 389.352L925.31 386.728ZM907.524 387.56C913.234 387.56 918.437 386.285 923.099 383.71L921.649 381.084C917.468 383.393 912.771 384.56 907.524 384.56V387.56ZM923.114 383.702C927.767 381.063 931.426 377.44 934.069 372.849L931.469 371.353C929.097 375.474 925.826 378.715 921.634 381.092L923.114 383.702ZM934.074 372.841C936.718 368.179 938.031 363.004 938.031 357.35H935.031C935.031 362.52 933.836 367.179 931.465 371.361L934.074 372.841ZM938.031 357.35C938.031 351.696 936.718 346.551 934.069 341.95L931.469 343.446C933.836 347.557 935.031 352.18 935.031 357.35H938.031ZM934.074 341.958C931.43 337.297 927.766 333.666 923.099 331.089L921.649 333.715C925.827 336.022 929.092 339.255 931.465 343.438L934.074 341.958ZM923.114 331.097C918.449 328.451 913.241 327.14 907.524 327.14V330.14C912.764 330.14 917.455 331.337 921.634 333.707L923.114 331.097ZM907.524 327.14C901.807 327.14 896.57 328.451 891.844 331.093L893.307 333.711C897.557 331.337 902.285 330.14 907.524 330.14V327.14ZM891.85 331.089C887.188 333.664 883.494 337.29 880.785 341.943L883.378 343.453C885.817 339.262 889.119 336.024 893.3 333.715L891.85 331.089ZM880.781 341.95C878.132 346.551 876.819 351.696 876.819 357.35H879.819C879.819 352.18 881.014 347.557 883.381 343.446L880.781 341.95ZM876.819 357.35C876.819 363.004 878.132 368.179 880.777 372.841L883.386 371.361C881.014 367.179 879.819 362.52 879.819 357.35H876.819ZM880.79 372.864C883.498 377.447 887.187 381.065 891.835 383.702L893.315 381.092C889.12 378.713 885.813 375.467 883.373 371.338L880.79 372.864ZM891.858 383.715C896.582 386.285 901.814 387.56 907.524 387.56V384.56C902.278 384.56 897.544 383.393 893.292 381.079L891.858 383.715ZM1009.09 357.35V355.85H1007.59V357.35H1009.09ZM1016.11 357.35H1017.61V355.85H1016.11V357.35ZM1016.11 383.783L1017.1 384.91L1017.61 384.462V383.783H1016.11ZM1004.63 390.317L1005.12 391.736L1004.63 390.317ZM971.96 388.04L972.681 386.724L971.96 388.04ZM958.892 375.467L957.598 376.225L957.602 376.232L958.892 375.467ZM958.892 339.332L960.183 340.097L960.187 340.09L958.892 339.332ZM1005.32 324.68L1004.78 326.078L1004.79 326.082L1004.8 326.085L1005.32 324.68ZM1016.51 332.105L1017.58 333.154L1018.58 332.137L1017.61 331.089L1016.51 332.105ZM1011.96 336.758L1010.9 337.825L1011.97 338.884L1013.03 337.807L1011.96 336.758ZM975.821 332.402L976.538 333.72L976.545 333.716L975.821 332.402ZM965.228 342.698L966.52 343.461L966.525 343.453L965.228 342.698ZM975.821 382.298L976.553 380.989L975.821 382.298ZM1009.09 380.714L1009.96 381.931L1010.59 381.482V380.714H1009.09ZM1009.09 358.85H1016.11V355.85H1009.09V358.85ZM1014.61 357.35V383.783H1017.61V357.35H1014.61ZM1015.12 382.656C1012.05 385.354 1008.4 387.438 1004.14 388.898L1005.12 391.736C1009.71 390.16 1013.71 387.888 1017.1 384.91L1015.12 382.656ZM1004.14 388.898C999.885 390.36 995.397 391.094 990.671 391.094V394.094C995.713 394.094 1000.53 393.31 1005.12 391.736L1004.14 388.898ZM990.671 391.094C983.968 391.094 977.983 389.628 972.681 386.724L971.24 389.356C977.025 392.524 983.514 394.094 990.671 394.094V391.094ZM972.681 386.724C967.368 383.815 963.211 379.813 960.183 374.702L957.602 376.232C960.909 381.813 965.464 386.193 971.24 389.356L972.681 386.724ZM960.187 374.709C957.162 369.542 955.64 363.767 955.64 357.35H952.64C952.64 364.265 954.287 370.568 957.598 376.225L960.187 374.709ZM955.64 357.35C955.64 350.933 957.162 345.194 960.183 340.097L957.602 338.567C954.287 344.162 952.64 350.435 952.64 357.35H955.64ZM960.187 340.09C963.216 334.914 967.373 330.882 972.681 327.976L971.24 325.344C965.459 328.51 960.904 332.926 957.598 338.574L960.187 340.09ZM972.681 327.976C977.981 325.073 983.999 323.606 990.77 323.606V320.606C983.55 320.606 977.027 322.175 971.24 325.344L972.681 327.976ZM990.77 323.606C995.886 323.606 1000.55 324.437 1004.78 326.078L1005.87 323.282C1001.25 321.491 996.215 320.606 990.77 320.606V323.606ZM1004.8 326.085C1009.01 327.657 1012.54 330.003 1015.41 333.121L1017.61 331.089C1014.41 327.607 1010.48 325.003 1005.85 323.275L1004.8 326.085ZM1015.44 331.056L1010.88 335.709L1013.03 337.807L1017.58 333.154L1015.44 331.056ZM1013.01 335.691C1007.22 329.973 999.868 327.14 991.067 327.14V330.14C999.163 330.14 1005.73 332.719 1010.9 337.825L1013.01 335.691ZM991.067 327.14C985.225 327.14 979.891 328.448 975.098 331.088L976.545 333.716C980.86 331.34 985.69 330.14 991.067 330.14V327.14ZM975.104 331.084C970.375 333.658 966.644 337.285 963.932 341.943L966.525 343.453C968.961 339.267 972.291 336.03 976.538 333.72L975.104 331.084ZM963.937 341.935C961.217 346.538 959.867 351.689 959.867 357.35H962.867C962.867 352.187 964.092 347.57 966.52 343.461L963.937 341.935ZM959.867 357.35C959.867 363.011 961.217 368.162 963.937 372.765L966.52 371.239C964.092 367.13 962.867 362.513 962.867 357.35H959.867ZM963.937 372.765C966.648 377.353 970.374 380.972 975.089 383.607L976.553 380.989C972.293 378.608 968.956 375.363 966.52 371.239L963.937 372.765ZM975.089 383.607C979.821 386.252 985.126 387.56 990.968 387.56V384.56C985.59 384.56 980.797 383.36 976.553 380.989L975.089 383.607ZM990.968 387.56C998.356 387.56 1004.72 385.709 1009.96 381.931L1008.21 379.497C1003.56 382.847 997.836 384.56 990.968 384.56V387.56ZM1010.59 380.714V357.35H1007.59V380.714H1010.59ZM1048.43 388.04L1047.7 389.349L1047.71 389.354L1047.72 389.359L1048.43 388.04ZM1035.36 375.368L1034.07 376.121L1034.07 376.133L1035.36 375.368ZM1035.36 339.332L1034.07 338.567L1034.07 338.579L1035.36 339.332ZM1048.43 326.759L1049.15 328.075L1049.16 328.072L1048.43 326.759ZM1085.66 326.66L1084.93 327.972L1084.94 327.976L1085.66 326.66ZM1098.72 339.332L1097.43 340.09L1097.43 340.097L1098.72 339.332ZM1098.72 375.467L1100.01 376.232L1100.02 376.225L1098.72 375.467ZM1085.66 388.04L1084.94 386.724L1084.93 386.728L1085.66 388.04ZM1081.99 382.397L1082.72 383.71L1082.73 383.706L1082.73 383.702L1081.99 382.397ZM1092.39 372.101L1093.69 372.849L1093.69 372.841L1092.39 372.101ZM1092.39 342.698L1091.08 343.438L1091.09 343.446L1092.39 342.698ZM1081.99 332.402L1081.25 333.707L1081.26 333.711L1081.27 333.715L1081.99 332.402ZM1052.19 332.402L1052.92 333.715L1052.93 333.711L1052.19 332.402ZM1041.7 342.698L1040.4 341.943L1040.4 341.95L1041.7 342.698ZM1041.7 372.101L1040.39 372.841L1040.4 372.853L1040.41 372.864L1041.7 372.101ZM1052.19 382.397L1051.45 383.702L1051.46 383.708L1051.48 383.715L1052.19 382.397ZM1067.14 391.094C1060.51 391.094 1054.52 389.629 1049.15 386.721L1047.72 389.359C1053.56 392.523 1060.05 394.094 1067.14 394.094V391.094ZM1049.16 386.731C1043.85 383.755 1039.68 379.717 1036.65 374.603L1034.07 376.133C1037.38 381.711 1041.93 386.121 1047.7 389.349L1049.16 386.731ZM1036.66 374.615C1033.7 369.516 1032.21 363.773 1032.21 357.35H1029.21C1029.21 364.259 1030.82 370.528 1034.07 376.121L1036.66 374.615ZM1032.21 357.35C1032.21 350.927 1033.7 345.184 1036.66 340.085L1034.07 338.579C1030.82 344.172 1029.21 350.441 1029.21 357.35H1032.21ZM1036.65 340.097C1039.68 334.986 1043.84 330.984 1049.15 328.075L1047.71 325.443C1041.94 328.606 1037.38 332.986 1034.07 338.567L1036.65 340.097ZM1049.16 328.072C1054.53 325.101 1060.51 323.606 1067.14 323.606V320.606C1060.04 320.606 1053.55 322.213 1047.71 325.446L1049.16 328.072ZM1067.14 323.606C1073.78 323.606 1079.69 325.071 1084.93 327.972L1086.38 325.348C1080.66 322.177 1074.24 320.606 1067.14 320.606V323.606ZM1084.94 327.976C1090.24 330.882 1094.4 334.914 1097.43 340.09L1100.02 338.574C1096.71 332.926 1092.16 328.51 1086.38 325.344L1084.94 327.976ZM1097.43 340.097C1100.45 345.194 1101.98 350.933 1101.98 357.35H1104.98C1104.98 350.435 1103.33 344.162 1100.01 338.567L1097.43 340.097ZM1101.98 357.35C1101.98 363.767 1100.45 369.542 1097.43 374.709L1100.02 376.225C1103.33 370.568 1104.98 364.265 1104.98 357.35H1101.98ZM1097.43 374.702C1094.4 379.813 1090.25 383.815 1084.94 386.724L1086.38 389.356C1092.15 386.193 1096.71 381.813 1100.01 376.232L1097.43 374.702ZM1084.93 386.728C1079.69 389.629 1073.78 391.094 1067.14 391.094V394.094C1074.24 394.094 1080.66 392.523 1086.38 389.352L1084.93 386.728ZM1067.14 387.56C1072.85 387.56 1078.06 386.285 1082.72 383.71L1081.27 381.084C1077.09 383.393 1072.39 384.56 1067.14 384.56V387.56ZM1082.73 383.702C1087.38 381.063 1091.04 377.44 1093.69 372.849L1091.09 371.353C1088.71 375.474 1085.44 378.715 1081.25 381.092L1082.73 383.702ZM1093.69 372.841C1096.34 368.179 1097.65 363.004 1097.65 357.35H1094.65C1094.65 362.52 1093.45 367.179 1091.08 371.361L1093.69 372.841ZM1097.65 357.35C1097.65 351.696 1096.34 346.551 1093.69 341.95L1091.09 343.446C1093.45 347.557 1094.65 352.18 1094.65 357.35H1097.65ZM1093.69 341.958C1091.05 337.297 1087.38 333.666 1082.72 331.089L1081.27 333.715C1085.45 336.022 1088.71 339.255 1091.08 343.438L1093.69 341.958ZM1082.73 331.097C1078.07 328.451 1072.86 327.14 1067.14 327.14V330.14C1072.38 330.14 1077.07 331.337 1081.25 333.707L1082.73 331.097ZM1067.14 327.14C1061.43 327.14 1056.19 328.451 1051.46 331.093L1052.93 333.711C1057.17 331.337 1061.9 330.14 1067.14 330.14V327.14ZM1051.47 331.089C1046.81 333.664 1043.11 337.29 1040.4 341.943L1043 343.453C1045.44 339.262 1048.74 336.024 1052.92 333.715L1051.47 331.089ZM1040.4 341.95C1037.75 346.551 1036.44 351.696 1036.44 357.35H1039.44C1039.44 352.18 1040.63 347.557 1043 343.446L1040.4 341.95ZM1036.44 357.35C1036.44 363.004 1037.75 368.179 1040.39 372.841L1043 371.361C1040.63 367.179 1039.44 362.52 1039.44 357.35H1036.44ZM1040.41 372.864C1043.12 377.447 1046.8 381.065 1051.45 383.702L1052.93 381.092C1048.74 378.713 1045.43 375.467 1042.99 371.338L1040.41 372.864ZM1051.48 383.715C1056.2 386.285 1061.43 387.56 1067.14 387.56V384.56C1061.9 384.56 1057.16 383.393 1052.91 381.079L1051.48 383.715Z" fill="#F2C92E"/>
<path d="M812 688H519C489.177 688 465 712.177 465 742C465 771.823 489.177 796 519 796H812C841.823 796 866 771.823 866 742C866 712.177 841.823 688 812 688Z" fill="#05A8AA"/>
<path d="M1442 688H1149C1119.18 688 1095 712.177 1095 742C1095 771.823 1119.18 796 1149 796H1442C1471.82 796 1496 771.823 1496 742C1496 712.177 1471.82 688 1442 688Z" fill="#05A8AA"/>
<g opacity="0.44">
<g opacity="0.44">
<path opacity="0.44" d="M177 8L-6 -196" stroke="black"/>
</g>
<g opacity="0.44">
<path opacity="0.44" d="M320 8L137 -196" stroke="black"/>
</g>
<g opacity="0.44">
<path opacity="0.44" d="M463 8L280 -196" stroke="black"/>
</g>
<g opacity="0.44">
<path opacity="0.44" d="M606 8L423 -196" stroke="black"/>
</g>
<g opacity="0.44">
<path opacity="0.44" d="M749 8L566 -196" stroke="black"/>
</g>
<g opacity="0.44">
<path opacity="0.44" d="M892 8L709 -196" stroke="black"/>
</g>
<g opacity="0.44">
<path opacity="0.44" d="M1035 8L852 -196" stroke="black"/>
</g>
<g opacity="0.44">
<path opacity="0.44" d="M1178 8L995 -196" stroke="black"/>
</g>
<g opacity="0.44">
<path opacity="0.44" d="M1321 8L1138 -196" stroke="black"/>
</g>
<g opacity="0.44">
<path opacity="0.44" d="M1464 8L1281 -196" stroke="black"/>
</g>
<g opacity="0.44">
<path opacity="0.44" d="M1607 8L1424 -196" stroke="black"/>
</g>
<g opacity="0.44">
<path opacity="0.44" d="M1750 8L1567 -196" stroke="black"/>
</g>
<g opacity="0.44">
<path opacity="0.44" d="M187.5 -77.5L-16.5 105.5" stroke="black"/>
<path opacity="0.44" d="M207.5 -67.5L3.5 115.5" stroke="black"/>
<path opacity="0.44" d="M197 126L14 -78" stroke="black"/>
<path opacity="0.44" d="M177 136L-6 -68" stroke="black"/>
</g>
<g opacity="0.44">
<path opacity="0.44" d="M330.5 -77.5L126.5 105.5" stroke="black"/>
<path opacity="0.44" d="M350.5 -67.5L146.5 115.5" stroke="black"/>
<path opacity="0.44" d="M340 126L157 -78" stroke="black"/>
<path opacity="0.44" d="M320 136L137 -68" stroke="black"/>
</g>
<g opacity="0.44">
<path opacity="0.44" d="M473.5 -77.5L269.5 105.5" stroke="black"/>
<path opacity="0.44" d="M493.5 -67.5L289.5 115.5" stroke="black"/>
<path opacity="0.44" d="M483 126L300 -78" stroke="black"/>
<path opacity="0.44" d="M463 136L280 -68" stroke="black"/>
</g>
<g opacity="0.44">
<path opacity="0.44" d="M616.5 -77.5L412.5 105.5" stroke="black"/>
<path opacity="0.44" d="M636.5 -67.5L432.5 115.5" stroke="black"/>
<path opacity="0.44" d="M626 126L443 -78" stroke="black"/>
<path opacity="0.44" d="M606 136L423 -68" stroke="black"/>
</g>
<g opacity="0.44">
<path opacity="0.44" d="M759.5 -77.5L555.5 105.5" stroke="black"/>
<path opacity="0.44" d="M779.5 -67.5L575.5 115.5" stroke="black"/>
<path opacity="0.44" d="M769 126L586 -78" stroke="black"/>
<path opacity="0.44" d="M749 136L566 -68" stroke="black"/>
</g>
<g opacity="0.44">
<path opacity="0.44" d="M902.5 -77.5L698.5 105.5" stroke="black"/>
<path opacity="0.44" d="M922.5 -67.5L718.5 115.5" stroke="black"/>
<path opacity="0.44" d="M912 126L729 -78" stroke="black"/>
<path opacity="0.44" d="M892 136L709 -68" stroke="black"/>
</g>
<g opacity="0.44">
<path opacity="0.44" d="M1045.5 -77.5L841.5 105.5" stroke="black"/>
<path opacity="0.44" d="M1065.5 -67.5L861.5 115.5" stroke="black"/>
<path opacity="0.44" d="M1055 126L872 -78" stroke="black"/>
<path opacity="0.44" d="M1035 136L852 -68" stroke="black"/>
</g>
<g opacity="0.44">
<path opacity="0.44" d="M1188.5 -77.5L984.5 105.5" stroke="black"/>
<path opacity="0.44" d="M1208.5 -67.5L1004.5 115.5" stroke="black"/>
<path opacity="0.44" d="M1198 126L1015 -78" stroke="black"/>
<path opacity="0.44" d="M1178 136L995 -68" stroke="black"/>
</g>
<g opacity="0.44">
<path opacity="0.44" d="M1331.5 -77.5L1127.5 105.5" stroke="black"/>
<path opacity="0.44" d="M1351.5 -67.5L1147.5 115.5" stroke="black"/>
<path opacity="0.44" d="M1341 126L1158 -78" stroke="black"/>
<path opacity="0.44" d="M1321 136L1138 -68" stroke="black"/>
</g>
<g opacity="0.44">
<path opacity="0.44" d="M1474.5 -77.5L1270.5 105.5" stroke="black"/>
<path opacity="0.44" d="M1494.5 -67.5L1290.5 115.5" stroke="black"/>
<path opacity="0.44" d="M1484 126L1301 -78" stroke="black"/>
<path opacity="0.44" d="M1464 136L1281 -68" stroke="black"/>
</g>
<g opacity="0.44">
<path opacity="0.44" d="M1617.5 -77.5L1413.5 105.5" stroke="black"/>
<path opacity="0.44" d="M1637.5 -67.5L1433.5 115.5" stroke="black"/>
<path opacity="0.44" d="M1627 126L1444 -78" stroke="black"/>
<path opacity="0.44" d="M1607 136L1424 -68" stroke="black"/>
</g>
<g opacity="0.44">
<path opacity="0.44" d="M1760.5 -77.5L1556.5 105.5" stroke="black"/>
<path opacity="0.44" d="M1780.5 -67.5L1576.5 115.5" stroke="black"/>
<path opacity="0.44" d="M1770 126L1587 -78" stroke="black"/>
<path opacity="0.44" d="M1750 136L1567 -68" stroke="black"/>
</g>
<g opacity="0.44">
<path opacity="0.44" d="M187.5 50.5L-16.5 233.5" stroke="black"/>
<path opacity="0.44" d="M207.5 60.5L3.5 243.5" stroke="black"/>
<path opacity="0.44" d="M197 254L14 50" stroke="black"/>
<path opacity="0.44" d="M177 264L-6 60" stroke="black"/>
</g>
<g opacity="0.44">
<path opacity="0.44" d="M330.5 50.5L126.5 233.5" stroke="black"/>
<path opacity="0.44" d="M350.5 60.5L146.5 243.5" stroke="black"/>
<path opacity="0.44" d="M340 254L157 50" stroke="black"/>
<path opacity="0.44" d="M320 264L137 60" stroke="black"/>
</g>
<g opacity="0.44">
<path opacity="0.44" d="M473.5 50.5L269.5 233.5" stroke="black"/>
<path opacity="0.44" d="M493.5 60.5L289.5 243.5" stroke="black"/>
<path opacity="0.44" d="M483 254L300 50" stroke="black"/>
<path opacity="0.44" d="M463 264L280 60" stroke="black"/>
</g>
<g opacity="0.44">
<path opacity="0.44" d="M616.5 50.5L412.5 233.5" stroke="black"/>
<path opacity="0.44" d="M636.5 60.5L432.5 243.5" stroke="black"/>
<path opacity="0.44" d="M626 254L443 50" stroke="black"/>
<path opacity="0.44" d="M606 264L423 60" stroke="black"/>
</g>
<g opacity="0.44">
<path opacity="0.44" d="M759.5 50.5L555.5 233.5" stroke="black"/>
<path opacity="0.44" d="M779.5 60.5L575.5 243.5" stroke="black"/>
<path opacity="0.44" d="M769 254L586 50" stroke="black"/>
<path opacity="0.44" d="M749 264L566 60" stroke="black"/>
</g>
<g opacity="0.44">
<path opacity="0.44" d="M902.5 50.5L698.5 233.5" stroke="black"/>
<path opacity="0.44" d="M922.5 60.5L718.5 243.5" stroke="black"/>
<path opacity="0.44" d="M912 254L729 50" stroke="black"/>
<path opacity="0.44" d="M892 264L709 60" stroke="black"/>
</g>
<g opacity="0.44">
<path opacity="0.44" d="M1045.5 50.5L841.5 233.5" stroke="black"/>
<path opacity="0.44" d="M1065.5 60.5L861.5 243.5" stroke="black"/>
<path opacity="0.44" d="M1055 254L872 50" stroke="black"/>
<path opacity="0.44" d="M1035 264L852 60" stroke="black"/>
</g>
<g opacity="0.44">
<path opacity="0.44" d="M1188.5 50.5L984.5 233.5" stroke="black"/>
<path opacity="0.44" d="M1208.5 60.5L1004.5 243.5" stroke="black"/>
<path opacity="0.44" d="M1198 254L1015 50" stroke="black"/>
<path opacity="0.44" d="M1178 264L995 60" stroke="black"/>
</g>
<g opacity="0.44">
<path opacity="0.44" d="M1331.5 50.5L1127.5 233.5" stroke="black"/>
<path opacity="0.44" d="M1351.5 60.5L1147.5 243.5" stroke="black"/>
<path opacity="0.44" d="M1341 254L1158 50" stroke="black"/>
<path opacity="0.44" d="M1321 264L1138 60" stroke="black"/>
</g>
<g opacity="0.44">
<path opacity="0.44" d="M1474.5 50.5L1270.5 233.5" stroke="black"/>
<path opacity="0.44" d="M1494.5 60.5L1290.5 243.5" stroke="black"/>
<path opacity="0.44" d="M1484 254L1301 50" stroke="black"/>
<path opacity="0.44" d="M1464 264L1281 60" stroke="black"/>
</g>
<g opacity="0.44">
<path opacity="0.44" d="M1617.5 50.5L1413.5 233.5" stroke="black"/>
<path opacity="0.44" d="M1637.5 60.5L1433.5 243.5" stroke="black"/>
<path opacity="0.44" d="M1627 254L1444 50" stroke="black"/>
<path opacity="0.44" d="M1607 264L1424 60" stroke="black"/>
</g>
<g opacity="0.44">
<path opacity="0.44" d="M1760.5 50.5L1556.5 233.5" stroke="black"/>
<path opacity="0.44" d="M1780.5 60.5L1576.5 243.5" stroke="black"/>
<path opacity="0.44" d="M1770 254L1587 50" stroke="black"/>
<path opacity="0.44" d="M1750 264L1567 60" stroke="black"/>
</g>
<g opacity="0.44">
<path opacity="0.44" d="M187.5 178.5L-16.5 361.5" stroke="black"/>
<path opacity="0.44" d="M207.5 188.5L3.5 371.5" stroke="black"/>
<path opacity="0.44" d="M197 382L14 178" stroke="black"/>
<path opacity="0.44" d="M177 392L-6 188" stroke="black"/>
</g>
<g opacity="0.44">
<path opacity="0.44" d="M330.5 178.5L126.5 361.5" stroke="black"/>
<path opacity="0.44" d="M350.5 188.5L146.5 371.5" stroke="black"/>
<path opacity="0.44" d="M340 382L157 178" stroke="black"/>
<path opacity="0.44" d="M320 392L137 188" stroke="black"/>
</g>
<g opacity="0.44">
<path opacity="0.44" d="M473.5 178.5L269.5 361.5" stroke="black"/>
<path opacity="0.44" d="M493.5 188.5L289.5 371.5" stroke="black"/>
<path opacity="0.44" d="M483 382L300 178" stroke="black"/>
<path opacity="0.44" d="M463 392L280 188" stroke="black"/>
</g>
<g opacity="0.44">
<path opacity="0.44" d="M616.5 178.5L412.5 361.5" stroke="black"/>
<path opacity="0.44" d="M636.5 188.5L432.5 371.5" stroke="black"/>
<path opacity="0.44" d="M626 382L443 178" stroke="black"/>
<path opacity="0.44" d="M606 392L423 188" stroke="black"/>
</g>
<g opacity="0.44">
<path opacity="0.44" d="M759.5 178.5L555.5 361.5" stroke="black"/>
<path opacity="0.44" d="M779.5 188.5L575.5 371.5" stroke="black"/>
<path opacity="0.44" d="M769 382L586 178" stroke="black"/>
<path opacity="0.44" d="M749 392L566 188" stroke="black"/>
</g>
<g opacity="0.44">
<path opacity="0.44" d="M902.5 178.5L698.5 361.5" stroke="black"/>
<path opacity="0.44" d="M922.5 188.5L718.5 371.5" stroke="black"/>
<path opacity="0.44" d="M912 382L729 178" stroke="black"/>
<path opacity="0.44" d="M892 392L709 188" stroke="black"/>
</g>
<g opacity="0.44">
<path opacity="0.44" d="M1045.5 178.5L841.5 361.5" stroke="black"/>
<path opacity="0.44" d="M1065.5 188.5L861.5 371.5" stroke="black"/>
<path opacity="0.44" d="M1055 382L872 178" stroke="black"/>
<path opacity="0.44" d="M1035 392L852 188" stroke="black"/>
</g>
<g opacity="0.44">
<path opacity="0.44" d="M1188.5 178.5L984.5 361.5" stroke="black"/>
<path opacity="0.44" d="M1208.5 188.5L1004.5 371.5" stroke="black"/>
<path opacity="0.44" d="M1198 382L1015 178" stroke="black"/>
<path opacity="0.44" d="M1178 392L995 188" stroke="black"/>
</g>
<g opacity="0.44">
<path opacity="0.44" d="M1331.5 178.5L1127.5 361.5" stroke="black"/>
<path opacity="0.44" d="M1351.5 188.5L1147.5 371.5" stroke="black"/>
<path opacity="0.44" d="M1341 382L1158 178" stroke="black"/>
<path opacity="0.44" d="M1321 392L1138 188" stroke="black"/>
</g>
<g opacity="0.44">
<path opacity="0.44" d="M1474.5 178.5L1270.5 361.5" stroke="black"/>
<path opacity="0.44" d="M1494.5 188.5L1290.5 371.5" stroke="black"/>
<path opacity="0.44" d="M1484 382L1301 178" stroke="black"/>
<path opacity="0.44" d="M1464 392L1281 188" stroke="black"/>
</g>
<g opacity="0.44">
<path opacity="0.44" d="M1617.5 178.5L1413.5 361.5" stroke="black"/>
<path opacity="0.44" d="M1637.5 188.5L1433.5 371.5" stroke="black"/>
<path opacity="0.44" d="M1627 382L1444 178" stroke="black"/>
<path opacity="0.44" d="M1607 392L1424 188" stroke="black"/>
</g>
<g opacity="0.44">
<path opacity="0.44" d="M1760.5 178.5L1556.5 361.5" stroke="black"/>
<path opacity="0.44" d="M1780.5 188.5L1576.5 371.5" stroke="black"/>
<path opacity="0.44" d="M1770 382L1587 178" stroke="black"/>
<path opacity="0.44" d="M1750 392L1567 188" stroke="black"/>
</g>
<g opacity="0.44">
<path opacity="0.44" d="M187.5 306.5L-16.5 489.5" stroke="black"/>
<path opacity="0.44" d="M207.5 316.5L3.5 499.5" stroke="black"/>
<path opacity="0.44" d="M197 510L14 306" stroke="black"/>
<path opacity="0.44" d="M177 520L-6 316" stroke="black"/>
</g>
<g opacity="0.44">
<path opacity="0.44" d="M330.5 306.5L126.5 489.5" stroke="black"/>
<path opacity="0.44" d="M350.5 316.5L146.5 499.5" stroke="black"/>
<path opacity="0.44" d="M340 510L157 306" stroke="black"/>
<path opacity="0.44" d="M320 520L137 316" stroke="black"/>
</g>
<g opacity="0.44">
<path opacity="0.44" d="M473.5 306.5L269.5 489.5" stroke="black"/>
<path opacity="0.44" d="M493.5 316.5L289.5 499.5" stroke="black"/>
<path opacity="0.44" d="M483 510L300 306" stroke="black"/>
<path opacity="0.44" d="M463 520L280 316" stroke="black"/>
</g>
<g opacity="0.44">
<path opacity="0.44" d="M616.5 306.5L412.5 489.5" stroke="black"/>
<path opacity="0.44" d="M636.5 316.5L432.5 499.5" stroke="black"/>
<path opacity="0.44" d="M626 510L443 306" stroke="black"/>
<path opacity="0.44" d="M606 520L423 316" stroke="black"/>
</g>
<g opacity="0.44">
<path opacity="0.44" d="M759.5 306.5L555.5 489.5" stroke="black"/>
<path opacity="0.44" d="M779.5 316.5L575.5 499.5" stroke="black"/>
<path opacity="0.44" d="M769 510L586 306" stroke="black"/>
<path opacity="0.44" d="M749 520L566 316" stroke="black"/>
</g>
<g opacity="0.44">
<path opacity="0.44" d="M902.5 306.5L698.5 489.5" stroke="black"/>
<path opacity="0.44" d="M922.5 316.5L718.5 499.5" stroke="black"/>
<path opacity="0.44" d="M912 510L729 306" stroke="black"/>
<path opacity="0.44" d="M892 520L709 316" stroke="black"/>
</g>
<g opacity="0.44">
<path opacity="0.44" d="M1045.5 306.5L841.5 489.5" stroke="black"/>
<path opacity="0.44" d="M1065.5 316.5L861.5 499.5" stroke="black"/>
<path opacity="0.44" d="M1055 510L872 306" stroke="black"/>
<path opacity="0.44" d="M1035 520L852 316" stroke="black"/>
</g>
<g opacity="0.44">
<path opacity="0.44" d="M1188.5 306.5L984.5 489.5" stroke="black"/>
<path opacity="0.44" d="M1208.5 316.5L1004.5 499.5" stroke="black"/>
<path opacity="0.44" d="M1198 510L1015 306" stroke="black"/>
<path opacity="0.44" d="M1178 520L995 316" stroke="black"/>
</g>
<g opacity="0.44">
<path opacity="0.44" d="M1331.5 306.5L1127.5 489.5" stroke="black"/>
<path opacity="0.44" d="M1351.5 316.5L1147.5 499.5" stroke="black"/>
<path opacity="0.44" d="M1341 510L1158 306" stroke="black"/>
<path opacity="0.44" d="M1321 520L1138 316" stroke="black"/>
</g>
<g opacity="0.44">
<path opacity="0.44" d="M1474.5 306.5L1270.5 489.5" stroke="black"/>
<path opacity="0.44" d="M1494.5 316.5L1290.5 499.5" stroke="black"/>
<path opacity="0.44" d="M1484 510L1301 306" stroke="black"/>
<path opacity="0.44" d="M1464 520L1281 316" stroke="black"/>
</g>
<g opacity="0.44">
<path opacity="0.44" d="M1617.5 306.5L1413.5 489.5" stroke="black"/>
<path opacity="0.44" d="M1637.5 316.5L1433.5 499.5" stroke="black"/>
<path opacity="0.44" d="M1627 510L1444 306" stroke="black"/>
<path opacity="0.44" d="M1607 520L1424 316" stroke="black"/>
</g>
<g opacity="0.44">
<path opacity="0.44" d="M1760.5 306.5L1556.5 489.5" stroke="black"/>
<path opacity="0.44" d="M1780.5 316.5L1576.5 499.5" stroke="black"/>
<path opacity="0.44" d="M1770 510L1587 306" stroke="black"/>
<path opacity="0.44" d="M1750 520L1567 316" stroke="black"/>
</g>
<g opacity="0.44">
<path opacity="0.44" d="M187.5 434.5L-16.5 617.5" stroke="black"/>
<path opacity="0.44" d="M207.5 444.5L3.5 627.5" stroke="black"/>
<path opacity="0.44" d="M197 638L14 434" stroke="black"/>
<path opacity="0.44" d="M177 648L-6 444" stroke="black"/>
</g>
<g opacity="0.44">
<path opacity="0.44" d="M330.5 434.5L126.5 617.5" stroke="black"/>
<path opacity="0.44" d="M350.5 444.5L146.5 627.5" stroke="black"/>
<path opacity="0.44" d="M340 638L157 434" stroke="black"/>
<path opacity="0.44" d="M320 648L137 444" stroke="black"/>
</g>
<g opacity="0.44">
<path opacity="0.44" d="M473.5 434.5L269.5 617.5" stroke="black"/>
<path opacity="0.44" d="M493.5 444.5L289.5 627.5" stroke="black"/>
<path opacity="0.44" d="M483 638L300 434" stroke="black"/>
<path opacity="0.44" d="M463 648L280 444" stroke="black"/>
</g>
<g opacity="0.44">
<path opacity="0.44" d="M616.5 434.5L412.5 617.5" stroke="black"/>
<path opacity="0.44" d="M636.5 444.5L432.5 627.5" stroke="black"/>
<path opacity="0.44" d="M626 638L443 434" stroke="black"/>
<path opacity="0.44" d="M606 648L423 444" stroke="black"/>
</g>
<g opacity="0.44">
<path opacity="0.44" d="M759.5 434.5L555.5 617.5" stroke="black"/>
<path opacity="0.44" d="M779.5 444.5L575.5 627.5" stroke="black"/>
<path opacity="0.44" d="M769 638L586 434" stroke="black"/>
<path opacity="0.44" d="M749 648L566 444" stroke="black"/>
</g>
<g opacity="0.44">
<path opacity="0.44" d="M902.5 434.5L698.5 617.5" stroke="black"/>
<path opacity="0.44" d="M922.5 444.5L718.5 627.5" stroke="black"/>
<path opacity="0.44" d="M912 638L729 434" stroke="black"/>
<path opacity="0.44" d="M892 648L709 444" stroke="black"/>
</g>
<g opacity="0.44">
<path opacity="0.44" d="M1045.5 434.5L841.5 617.5" stroke="black"/>
<path opacity="0.44" d="M1065.5 444.5L861.5 627.5" stroke="black"/>
<path opacity="0.44" d="M1055 638L872 434" stroke="black"/>
<path opacity="0.44" d="M1035 648L852 444" stroke="black"/>
</g>
<g opacity="0.44">
<path opacity="0.44" d="M1188.5 434.5L984.5 617.5" stroke="black"/>
<path opacity="0.44" d="M1208.5 444.5L1004.5 627.5" stroke="black"/>
<path opacity="0.44" d="M1198 638L1015 434" stroke="black"/>
<path opacity="0.44" d="M1178 648L995 444" stroke="black"/>
</g>
<g opacity="0.44">
<path opacity="0.44" d="M1331.5 434.5L1127.5 617.5" stroke="black"/>
<path opacity="0.44" d="M1351.5 444.5L1147.5 627.5" stroke="black"/>
<path opacity="0.44" d="M1341 638L1158 434" stroke="black"/>
<path opacity="0.44" d="M1321 648L1138 444" stroke="black"/>
</g>
<g opacity="0.44">
<path opacity="0.44" d="M1474.5 434.5L1270.5 617.5" stroke="black"/>
<path opacity="0.44" d="M1494.5 444.5L1290.5 627.5" stroke="black"/>
<path opacity="0.44" d="M1484 638L1301 434" stroke="black"/>
<path opacity="0.44" d="M1464 648L1281 444" stroke="black"/>
</g>
<g opacity="0.44">
<path opacity="0.44" d="M1617.5 434.5L1413.5 617.5" stroke="black"/>
<path opacity="0.44" d="M1637.5 444.5L1433.5 627.5" stroke="black"/>
<path opacity="0.44" d="M1627 638L1444 434" stroke="black"/>
<path opacity="0.44" d="M1607 648L1424 444" stroke="black"/>
</g>
<g opacity="0.44">
<path opacity="0.44" d="M1760.5 434.5L1556.5 617.5" stroke="black"/>
<path opacity="0.44" d="M1780.5 444.5L1576.5 627.5" stroke="black"/>
<path opacity="0.44" d="M1770 638L1587 434" stroke="black"/>
<path opacity="0.44" d="M1750 648L1567 444" stroke="black"/>
</g>
<g opacity="0.44">
<path opacity="0.44" d="M187.5 562.5L-16.5 745.5" stroke="black"/>
<path opacity="0.44" d="M207.5 572.5L3.5 755.5" stroke="black"/>
<path opacity="0.44" d="M197 766L14 562" stroke="black"/>
<path opacity="0.44" d="M177 776L-6 572" stroke="black"/>
</g>
<g opacity="0.44">
<path opacity="0.44" d="M330.5 562.5L126.5 745.5" stroke="black"/>
<path opacity="0.44" d="M350.5 572.5L146.5 755.5" stroke="black"/>
<path opacity="0.44" d="M340 766L157 562" stroke="black"/>
<path opacity="0.44" d="M320 776L137 572" stroke="black"/>
</g>
<g opacity="0.44">
<path opacity="0.44" d="M473.5 562.5L269.5 745.5" stroke="black"/>
<path opacity="0.44" d="M493.5 572.5L289.5 755.5" stroke="black"/>
<path opacity="0.44" d="M483 766L300 562" stroke="black"/>
<path opacity="0.44" d="M463 776L280 572" stroke="black"/>
</g>
<g opacity="0.44">
<path opacity="0.44" d="M616.5 562.5L412.5 745.5" stroke="black"/>
<path opacity="0.44" d="M636.5 572.5L432.5 755.5" stroke="black"/>
<path opacity="0.44" d="M626 766L443 562" stroke="black"/>
<path opacity="0.44" d="M606 776L423 572" stroke="black"/>
</g>
<g opacity="0.44">
<path opacity="0.44" d="M759.5 562.5L555.5 745.5" stroke="black"/>
<path opacity="0.44" d="M779.5 572.5L575.5 755.5" stroke="black"/>
<path opacity="0.44" d="M769 766L586 562" stroke="black"/>
<path opacity="0.44" d="M749 776L566 572" stroke="black"/>
</g>
<g opacity="0.44">
<path opacity="0.44" d="M902.5 562.5L698.5 745.5" stroke="black"/>
<path opacity="0.44" d="M922.5 572.5L718.5 755.5" stroke="black"/>
<path opacity="0.44" d="M912 766L729 562" stroke="black"/>
<path opacity="0.44" d="M892 776L709 572" stroke="black"/>
</g>
<g opacity="0.44">
<path opacity="0.44" d="M1045.5 562.5L841.5 745.5" stroke="black"/>
<path opacity="0.44" d="M1065.5 572.5L861.5 755.5" stroke="black"/>
<path opacity="0.44" d="M1055 766L872 562" stroke="black"/>
<path opacity="0.44" d="M1035 776L852 572" stroke="black"/>
</g>
<g opacity="0.44">
<path opacity="0.44" d="M1188.5 562.5L984.5 745.5" stroke="black"/>
<path opacity="0.44" d="M1208.5 572.5L1004.5 755.5" stroke="black"/>
<path opacity="0.44" d="M1198 766L1015 562" stroke="black"/>
<path opacity="0.44" d="M1178 776L995 572" stroke="black"/>
</g>
<g opacity="0.44">
<path opacity="0.44" d="M1331.5 562.5L1127.5 745.5" stroke="black"/>
<path opacity="0.44" d="M1351.5 572.5L1147.5 755.5" stroke="black"/>
<path opacity="0.44" d="M1341 766L1158 562" stroke="black"/>
<path opacity="0.44" d="M1321 776L1138 572" stroke="black"/>
</g>
<g opacity="0.44">
<path opacity="0.44" d="M1474.5 562.5L1270.5 745.5" stroke="black"/>
<path opacity="0.44" d="M1494.5 572.5L1290.5 755.5" stroke="black"/>
<path opacity="0.44" d="M1484 766L1301 562" stroke="black"/>
<path opacity="0.44" d="M1464 776L1281 572" stroke="black"/>
</g>
<g opacity="0.44">
<path opacity="0.44" d="M1617.5 562.5L1413.5 745.5" stroke="black"/>
<path opacity="0.44" d="M1637.5 572.5L1433.5 755.5" stroke="black"/>
<path opacity="0.44" d="M1627 766L1444 562" stroke="black"/>
<path opacity="0.44" d="M1607 776L1424 572" stroke="black"/>
</g>
<g opacity="0.44">
<path opacity="0.44" d="M1760.5 562.5L1556.5 745.5" stroke="black"/>
<path opacity="0.44" d="M1780.5 572.5L1576.5 755.5" stroke="black"/>
<path opacity="0.44" d="M1770 766L1587 562" stroke="black"/>
<path opacity="0.44" d="M1750 776L1567 572" stroke="black"/>
</g>
<g opacity="0.44">
<path opacity="0.44" d="M187.5 690.5L-16.5 873.5" stroke="black"/>
<path opacity="0.44" d="M207.5 700.5L3.5 883.5" stroke="black"/>
<path opacity="0.44" d="M197 894L14 690" stroke="black"/>
<path opacity="0.44" d="M177 904L-6 700" stroke="black"/>
</g>
<g opacity="0.44">
<path opacity="0.44" d="M330.5 690.5L126.5 873.5" stroke="black"/>
<path opacity="0.44" d="M350.5 700.5L146.5 883.5" stroke="black"/>
<path opacity="0.44" d="M340 894L157 690" stroke="black"/>
<path opacity="0.44" d="M320 904L137 700" stroke="black"/>
</g>
<g opacity="0.44">
<path opacity="0.44" d="M473.5 690.5L269.5 873.5" stroke="black"/>
<path opacity="0.44" d="M493.5 700.5L289.5 883.5" stroke="black"/>
<path opacity="0.44" d="M483 894L300 690" stroke="black"/>
<path opacity="0.44" d="M463 904L280 700" stroke="black"/>
</g>
<g opacity="0.44">
<path opacity="0.44" d="M616.5 690.5L412.5 873.5" stroke="black"/>
<path opacity="0.44" d="M636.5 700.5L432.5 883.5" stroke="black"/>
<path opacity="0.44" d="M626 894L443 690" stroke="black"/>
<path opacity="0.44" d="M606 904L423 700" stroke="black"/>
</g>
<g opacity="0.44">
<path opacity="0.44" d="M759.5 690.5L555.5 873.5" stroke="black"/>
<path opacity="0.44" d="M779.5 700.5L575.5 883.5" stroke="black"/>
<path opacity="0.44" d="M769 894L586 690" stroke="black"/>
<path opacity="0.44" d="M749 904L566 700" stroke="black"/>
</g>
<g opacity="0.44">
<path opacity="0.44" d="M902.5 690.5L698.5 873.5" stroke="black"/>
<path opacity="0.44" d="M922.5 700.5L718.5 883.5" stroke="black"/>
<path opacity="0.44" d="M912 894L729 690" stroke="black"/>
<path opacity="0.44" d="M892 904L709 700" stroke="black"/>
</g>
<g opacity="0.44">
<path opacity="0.44" d="M1045.5 690.5L841.5 873.5" stroke="black"/>
<path opacity="0.44" d="M1065.5 700.5L861.5 883.5" stroke="black"/>
<path opacity="0.44" d="M1055 894L872 690" stroke="black"/>
<path opacity="0.44" d="M1035 904L852 700" stroke="black"/>
</g>
<g opacity="0.44">
<path opacity="0.44" d="M1188.5 690.5L984.5 873.5" stroke="black"/>
<path opacity="0.44" d="M1208.5 700.5L1004.5 883.5" stroke="black"/>
<path opacity="0.44" d="M1198 894L1015 690" stroke="black"/>
<path opacity="0.44" d="M1178 904L995 700" stroke="black"/>
</g>
<g opacity="0.44">
<path opacity="0.44" d="M1331.5 690.5L1127.5 873.5" stroke="black"/>
<path opacity="0.44" d="M1351.5 700.5L1147.5 883.5" stroke="black"/>
<path opacity="0.44" d="M1341 894L1158 690" stroke="black"/>
<path opacity="0.44" d="M1321 904L1138 700" stroke="black"/>
</g>
<g opacity="0.44">
<path opacity="0.44" d="M1474.5 690.5L1270.5 873.5" stroke="black"/>
<path opacity="0.44" d="M1494.5 700.5L1290.5 883.5" stroke="black"/>
<path opacity="0.44" d="M1484 894L1301 690" stroke="black"/>
<path opacity="0.44" d="M1464 904L1281 700" stroke="black"/>
</g>
<g opacity="0.44">
<path opacity="0.44" d="M1617.5 690.5L1413.5 873.5" stroke="black"/>
<path opacity="0.44" d="M1637.5 700.5L1433.5 883.5" stroke="black"/>
<path opacity="0.44" d="M1627 894L1444 690" stroke="black"/>
<path opacity="0.44" d="M1607 904L1424 700" stroke="black"/>
</g>
<g opacity="0.44">
<path opacity="0.44" d="M1760.5 690.5L1556.5 873.5" stroke="black"/>
<path opacity="0.44" d="M1780.5 700.5L1576.5 883.5" stroke="black"/>
<path opacity="0.44" d="M1770 894L1587 690" stroke="black"/>
<path opacity="0.44" d="M1750 904L1567 700" stroke="black"/>
</g>
<g opacity="0.44">
<path opacity="0.44" d="M187.5 818.5L-16.5 1001.5" stroke="black"/>
<path opacity="0.44" d="M207.5 828.5L3.5 1011.5" stroke="black"/>
<path opacity="0.44" d="M197 1022L14 818" stroke="black"/>
<path opacity="0.44" d="M177 1032L-6 828" stroke="black"/>
</g>
<g opacity="0.44">
<path opacity="0.44" d="M330.5 818.5L126.5 1001.5" stroke="black"/>
<path opacity="0.44" d="M350.5 828.5L146.5 1011.5" stroke="black"/>
<path opacity="0.44" d="M340 1022L157 818" stroke="black"/>
<path opacity="0.44" d="M320 1032L137 828" stroke="black"/>
</g>
<g opacity="0.44">
<path opacity="0.44" d="M473.5 818.5L269.5 1001.5" stroke="black"/>
<path opacity="0.44" d="M493.5 828.5L289.5 1011.5" stroke="black"/>
<path opacity="0.44" d="M483 1022L300 818" stroke="black"/>
<path opacity="0.44" d="M463 1032L280 828" stroke="black"/>
</g>
<g opacity="0.44">
<path opacity="0.44" d="M616.5 818.5L412.5 1001.5" stroke="black"/>
<path opacity="0.44" d="M636.5 828.5L432.5 1011.5" stroke="black"/>
<path opacity="0.44" d="M626 1022L443 818" stroke="black"/>
<path opacity="0.44" d="M606 1032L423 828" stroke="black"/>
</g>
<g opacity="0.44">
<path opacity="0.44" d="M759.5 818.5L555.5 1001.5" stroke="black"/>
<path opacity="0.44" d="M779.5 828.5L575.5 1011.5" stroke="black"/>
<path opacity="0.44" d="M769 1022L586 818" stroke="black"/>
<path opacity="0.44" d="M749 1032L566 828" stroke="black"/>
</g>
<g opacity="0.44">
<path opacity="0.44" d="M902.5 818.5L698.5 1001.5" stroke="black"/>
<path opacity="0.44" d="M922.5 828.5L718.5 1011.5" stroke="black"/>
<path opacity="0.44" d="M912 1022L729 818" stroke="black"/>
<path opacity="0.44" d="M892 1032L709 828" stroke="black"/>
</g>
<g opacity="0.44">
<path opacity="0.44" d="M1045.5 818.5L841.5 1001.5" stroke="black"/>
<path opacity="0.44" d="M1065.5 828.5L861.5 1011.5" stroke="black"/>
<path opacity="0.44" d="M1055 1022L872 818" stroke="black"/>
<path opacity="0.44" d="M1035 1032L852 828" stroke="black"/>
</g>
<g opacity="0.44">
<path opacity="0.44" d="M1188.5 818.5L984.5 1001.5" stroke="black"/>
<path opacity="0.44" d="M1208.5 828.5L1004.5 1011.5" stroke="black"/>
<path opacity="0.44" d="M1198 1022L1015 818" stroke="black"/>
<path opacity="0.44" d="M1178 1032L995 828" stroke="black"/>
</g>
<g opacity="0.44">
<path opacity="0.44" d="M1331.5 818.5L1127.5 1001.5" stroke="black"/>
<path opacity="0.44" d="M1351.5 828.5L1147.5 1011.5" stroke="black"/>
<path opacity="0.44" d="M1341 1022L1158 818" stroke="black"/>
<path opacity="0.44" d="M1321 1032L1138 828" stroke="black"/>
</g>
<g opacity="0.44">
<path opacity="0.44" d="M1474.5 818.5L1270.5 1001.5" stroke="black"/>
<path opacity="0.44" d="M1494.5 828.5L1290.5 1011.5" stroke="black"/>
<path opacity="0.44" d="M1484 1022L1301 818" stroke="black"/>
<path opacity="0.44" d="M1464 1032L1281 828" stroke="black"/>
</g>
<g opacity="0.44">
<path opacity="0.44" d="M1617.5 818.5L1413.5 1001.5" stroke="black"/>
<path opacity="0.44" d="M1637.5 828.5L1433.5 1011.5" stroke="black"/>
<path opacity="0.44" d="M1627 1022L1444 818" stroke="black"/>
<path opacity="0.44" d="M1607 1032L1424 828" stroke="black"/>
</g>
<g opacity="0.44">
<path opacity="0.44" d="M1760.5 818.5L1556.5 1001.5" stroke="black"/>
<path opacity="0.44" d="M1780.5 828.5L1576.5 1011.5" stroke="black"/>
<path opacity="0.44" d="M1770 1022L1587 818" stroke="black"/>
<path opacity="0.44" d="M1750 1032L1567 828" stroke="black"/>
</g>
<g opacity="0.44">
<path opacity="0.44" d="M187.5 946.5L-16.5 1129.5" stroke="black"/>
<path opacity="0.44" d="M207.5 956.5L3.5 1139.5" stroke="black"/>
<path opacity="0.44" d="M197 1150L14 946" stroke="black"/>
<path opacity="0.44" d="M177 1160L-6 956" stroke="black"/>
</g>
<g opacity="0.44">
<path opacity="0.44" d="M330.5 946.5L126.5 1129.5" stroke="black"/>
<path opacity="0.44" d="M350.5 956.5L146.5 1139.5" stroke="black"/>
<path opacity="0.44" d="M340 1150L157 946" stroke="black"/>
<path opacity="0.44" d="M320 1160L137 956" stroke="black"/>
</g>
<g opacity="0.44">
<path opacity="0.44" d="M473.5 946.5L269.5 1129.5" stroke="black"/>
<path opacity="0.44" d="M493.5 956.5L289.5 1139.5" stroke="black"/>
<path opacity="0.44" d="M483 1150L300 946" stroke="black"/>
<path opacity="0.44" d="M463 1160L280 956" stroke="black"/>
</g>
<g opacity="0.44">
<path opacity="0.44" d="M616.5 946.5L412.5 1129.5" stroke="black"/>
<path opacity="0.44" d="M636.5 956.5L432.5 1139.5" stroke="black"/>
<path opacity="0.44" d="M626 1150L443 946" stroke="black"/>
<path opacity="0.44" d="M606 1160L423 956" stroke="black"/>
</g>
<g opacity="0.44">
<path opacity="0.44" d="M759.5 946.5L555.5 1129.5" stroke="black"/>
<path opacity="0.44" d="M779.5 956.5L575.5 1139.5" stroke="black"/>
<path opacity="0.44" d="M769 1150L586 946" stroke="black"/>
<path opacity="0.44" d="M749 1160L566 956" stroke="black"/>
</g>
<g opacity="0.44">
<path opacity="0.44" d="M902.5 946.5L698.5 1129.5" stroke="black"/>
<path opacity="0.44" d="M922.5 956.5L718.5 1139.5" stroke="black"/>
<path opacity="0.44" d="M912 1150L729 946" stroke="black"/>
<path opacity="0.44" d="M892 1160L709 956" stroke="black"/>
</g>
<g opacity="0.44">
<path opacity="0.44" d="M1045.5 946.5L841.5 1129.5" stroke="black"/>
<path opacity="0.44" d="M1065.5 956.5L861.5 1139.5" stroke="black"/>
<path opacity="0.44" d="M1055 1150L872 946" stroke="black"/>
<path opacity="0.44" d="M1035 1160L852 956" stroke="black"/>
</g>
<g opacity="0.44">
<path opacity="0.44" d="M1188.5 946.5L984.5 1129.5" stroke="black"/>
<path opacity="0.44" d="M1208.5 956.5L1004.5 1139.5" stroke="black"/>
<path opacity="0.44" d="M1198 1150L1015 946" stroke="black"/>
<path opacity="0.44" d="M1178 1160L995 956" stroke="black"/>
</g>
<g opacity="0.44">
<path opacity="0.44" d="M1331.5 946.5L1127.5 1129.5" stroke="black"/>
<path opacity="0.44" d="M1351.5 956.5L1147.5 1139.5" stroke="black"/>
<path opacity="0.44" d="M1341 1150L1158 946" stroke="black"/>
<path opacity="0.44" d="M1321 1160L1138 956" stroke="black"/>
</g>
<g opacity="0.44">
<path opacity="0.44" d="M1474.5 946.5L1270.5 1129.5" stroke="black"/>
<path opacity="0.44" d="M1494.5 956.5L1290.5 1139.5" stroke="black"/>
<path opacity="0.44" d="M1484 1150L1301 946" stroke="black"/>
<path opacity="0.44" d="M1464 1160L1281 956" stroke="black"/>
</g>
<g opacity="0.44">
<path opacity="0.44" d="M1617.5 946.5L1413.5 1129.5" stroke="black"/>
<path opacity="0.44" d="M1637.5 956.5L1433.5 1139.5" stroke="black"/>
<path opacity="0.44" d="M1627 1150L1444 946" stroke="black"/>
<path opacity="0.44" d="M1607 1160L1424 956" stroke="black"/>
</g>
<g opacity="0.44">
<path opacity="0.44" d="M1760.5 946.5L1556.5 1129.5" stroke="black"/>
<path opacity="0.44" d="M1780.5 956.5L1576.5 1139.5" stroke="black"/>
<path opacity="0.44" d="M1770 1150L1587 946" stroke="black"/>
<path opacity="0.44" d="M1750 1160L1567 956" stroke="black"/>
</g>
<g opacity="0.44">
<path opacity="0.44" d="M187.5 1074.5L-16.5 1257.5" stroke="black"/>
<path opacity="0.44" d="M197 1278L14 1074" stroke="black"/>
</g>
<g opacity="0.44">
<path opacity="0.44" d="M330.5 1074.5L126.5 1257.5" stroke="black"/>
<path opacity="0.44" d="M340 1278L157 1074" stroke="black"/>
</g>
<g opacity="0.44">
<path opacity="0.44" d="M473.5 1074.5L269.5 1257.5" stroke="black"/>
<path opacity="0.44" d="M483 1278L300 1074" stroke="black"/>
</g>
<g opacity="0.44">
<path opacity="0.44" d="M616.5 1074.5L412.5 1257.5" stroke="black"/>
<path opacity="0.44" d="M626 1278L443 1074" stroke="black"/>
</g>
<g opacity="0.44">
<path opacity="0.44" d="M759.5 1074.5L555.5 1257.5" stroke="black"/>
<path opacity="0.44" d="M769 1278L586 1074" stroke="black"/>
</g>
<g opacity="0.44">
<path opacity="0.44" d="M902.5 1074.5L698.5 1257.5" stroke="black"/>
<path opacity="0.44" d="M912 1278L729 1074" stroke="black"/>
</g>
<g opacity="0.44">
<path opacity="0.44" d="M1045.5 1074.5L841.5 1257.5" stroke="black"/>
<path opacity="0.44" d="M1055 1278L872 1074" stroke="black"/>
</g>
<g opacity="0.44">
<path opacity="0.44" d="M1188.5 1074.5L984.5 1257.5" stroke="black"/>
<path opacity="0.44" d="M1198 1278L1015 1074" stroke="black"/>
</g>
<g opacity="0.44">
<path opacity="0.44" d="M1331.5 1074.5L1127.5 1257.5" stroke="black"/>
<path opacity="0.44" d="M1341 1278L1158 1074" stroke="black"/>
</g>
<g opacity="0.44">
<path opacity="0.44" d="M1474.5 1074.5L1270.5 1257.5" stroke="black"/>
<path opacity="0.44" d="M1484 1278L1301 1074" stroke="black"/>
</g>
<g opacity="0.44">
<path opacity="0.44" d="M1617.5 1074.5L1413.5 1257.5" stroke="black"/>
<path opacity="0.44" d="M1627 1278L1444 1074" stroke="black"/>
</g>
<g opacity="0.44">
<path opacity="0.44" d="M1760.5 1074.5L1556.5 1257.5" stroke="black"/>
<path opacity="0.44" d="M1770 1278L1587 1074" stroke="black"/>
</g>
</g>
</g>
<defs>
<clipPath id="clip0">
<rect width="1920" height="1080" fill="white"/>
</clipPath>
</defs>
</svg>
