<svg width="821" height="106" viewBox="0 0 821 106" fill="none" xmlns="http://www.w3.org/2000/svg">
<path d="M42.504 105.016C34.344 105.016 26.424 104.008 18.744 101.992C11.064 99.976 4.824 97.288 0.0240002 93.928L9.384 72.904C13.896 75.88 19.128 78.28 25.08 80.104C31.032 81.928 36.888 82.84 42.648 82.84C53.592 82.84 59.064 80.104 59.064 74.632C59.064 71.752 57.48 69.64 54.312 68.296C51.24 66.856 46.248 65.368 39.336 63.832C31.752 62.2 25.416 60.472 20.328 58.648C15.24 56.728 10.872 53.704 7.224 49.576C3.576 45.448 1.752 39.88 1.752 32.872C1.752 26.728 3.432 21.208 6.792 16.312C10.152 11.32 15.144 7.384 21.768 4.504C28.488 1.62399 36.696 0.183993 46.392 0.183993C53.016 0.183993 59.544 0.951995 65.976 2.488C72.408 3.928 78.072 6.08799 82.968 8.96799L74.184 30.136C64.584 24.952 55.272 22.36 46.248 22.36C40.584 22.36 36.456 23.224 33.864 24.952C31.272 26.584 29.976 28.744 29.976 31.432C29.976 34.12 31.512 36.136 34.584 37.48C37.656 38.824 42.6 40.216 49.416 41.656C57.096 43.288 63.432 45.064 68.424 46.984C73.512 48.808 77.88 51.784 81.528 55.912C85.272 59.944 87.144 65.464 87.144 72.472C87.144 78.52 85.464 83.992 82.104 88.888C78.744 93.784 73.704 97.72 66.984 100.696C60.264 103.576 52.104 105.016 42.504 105.016ZM146.394 2.19999C155.514 2.19999 163.434 3.73599 170.154 6.80799C176.874 9.784 182.058 14.104 185.706 19.768C189.354 25.336 191.178 31.912 191.178 39.496C191.178 47.08 189.354 53.656 185.706 59.224C182.058 64.792 176.874 69.112 170.154 72.184C163.434 75.16 155.514 76.648 146.394 76.648H128.826V103H100.314V2.19999H146.394ZM144.666 54.184C150.522 54.184 154.938 52.936 157.914 50.44C160.89 47.848 162.378 44.2 162.378 39.496C162.378 34.792 160.89 31.144 157.914 28.552C154.938 25.96 150.522 24.664 144.666 24.664H128.826V54.184H144.666ZM257.318 105.016C246.662 105.016 237.062 102.76 228.518 98.248C220.07 93.736 213.398 87.496 208.502 79.528C203.702 71.56 201.302 62.584 201.302 52.6C201.302 42.616 203.702 33.64 208.502 25.672C213.398 17.704 220.07 11.464 228.518 6.95199C237.062 2.43999 246.662 0.183993 257.318 0.183993C267.974 0.183993 277.526 2.43999 285.974 6.95199C294.518 11.464 301.19 17.704 305.99 25.672C310.886 33.64 313.334 42.616 313.334 52.6C313.334 62.584 310.886 71.56 305.99 79.528C301.19 87.496 294.518 93.736 285.974 98.248C277.526 102.76 267.974 105.016 257.318 105.016ZM257.318 81.4C262.406 81.4 267.014 80.2 271.142 77.8C275.27 75.4 278.534 72.04 280.934 67.72C283.334 63.304 284.534 58.264 284.534 52.6C284.534 46.936 283.334 41.944 280.934 37.624C278.534 33.208 275.27 29.8 271.142 27.4C267.014 25 262.406 23.8 257.318 23.8C252.23 23.8 247.622 25 243.494 27.4C239.366 29.8 236.102 33.208 233.702 37.624C231.302 41.944 230.102 46.936 230.102 52.6C230.102 58.264 231.302 63.304 233.702 67.72C236.102 72.04 239.366 75.4 243.494 77.8C247.622 80.2 252.23 81.4 257.318 81.4ZM424.172 2.19999V103H400.7L356.203 49.288V103H328.268V2.19999H351.74L396.236 55.912V2.19999H424.172ZM479.707 105.016C471.547 105.016 463.627 104.008 455.947 101.992C448.267 99.976 442.027 97.288 437.227 93.928L446.587 72.904C451.099 75.88 456.331 78.28 462.283 80.104C468.235 81.928 474.091 82.84 479.851 82.84C490.795 82.84 496.267 80.104 496.267 74.632C496.267 71.752 494.683 69.64 491.515 68.296C488.443 66.856 483.451 65.368 476.539 63.832C468.955 62.2 462.619 60.472 457.531 58.648C452.443 56.728 448.075 53.704 444.427 49.576C440.779 45.448 438.955 39.88 438.955 32.872C438.955 26.728 440.635 21.208 443.995 16.312C447.355 11.32 452.347 7.384 458.971 4.504C465.691 1.62399 473.899 0.183993 483.595 0.183993C490.219 0.183993 496.747 0.951995 503.179 2.488C509.611 3.928 515.275 6.08799 520.171 8.96799L511.387 30.136C501.787 24.952 492.475 22.36 483.451 22.36C477.787 22.36 473.659 23.224 471.067 24.952C468.475 26.584 467.179 28.744 467.179 31.432C467.179 34.12 468.715 36.136 471.787 37.48C474.859 38.824 479.803 40.216 486.619 41.656C494.299 43.288 500.635 45.064 505.627 46.984C510.715 48.808 515.083 51.784 518.731 55.912C522.475 59.944 524.347 65.464 524.347 72.472C524.347 78.52 522.667 83.992 519.307 88.888C515.947 93.784 510.907 97.72 504.187 100.696C497.467 103.576 489.307 105.016 479.707 105.016ZM618.446 80.968V103H537.518V2.19999H616.574V24.232H565.742V41.224H610.526V62.536H565.742V80.968H618.446ZM678.332 76.216H662.78V103H634.268V2.19999H680.348C689.468 2.19999 697.388 3.73599 704.108 6.80799C710.828 9.784 716.012 14.104 719.66 19.768C723.308 25.336 725.132 31.912 725.132 39.496C725.132 46.792 723.404 53.176 719.948 58.648C716.588 64.024 711.74 68.248 705.404 71.32L727.148 103H696.62L678.332 76.216ZM696.332 39.496C696.332 34.792 694.844 31.144 691.868 28.552C688.892 25.96 684.476 24.664 678.62 24.664H662.78V54.184H678.62C684.476 54.184 688.892 52.936 691.868 50.44C694.844 47.848 696.332 44.2 696.332 39.496ZM776.285 105.016C768.125 105.016 760.205 104.008 752.525 101.992C744.845 99.976 738.605 97.288 733.805 93.928L743.165 72.904C747.677 75.88 752.909 78.28 758.861 80.104C764.813 81.928 770.669 82.84 776.429 82.84C787.373 82.84 792.845 80.104 792.845 74.632C792.845 71.752 791.261 69.64 788.093 68.296C785.021 66.856 780.029 65.368 773.117 63.832C765.533 62.2 759.197 60.472 754.109 58.648C749.021 56.728 744.653 53.704 741.005 49.576C737.357 45.448 735.533 39.88 735.533 32.872C735.533 26.728 737.213 21.208 740.573 16.312C743.933 11.32 748.925 7.384 755.549 4.504C762.269 1.62399 770.477 0.183993 780.173 0.183993C786.797 0.183993 793.325 0.951995 799.757 2.488C806.189 3.928 811.853 6.08799 816.749 8.96799L807.965 30.136C798.365 24.952 789.053 22.36 780.029 22.36C774.365 22.36 770.237 23.224 767.645 24.952C765.053 26.584 763.757 28.744 763.757 31.432C763.757 34.12 765.293 36.136 768.365 37.48C771.437 38.824 776.381 40.216 783.197 41.656C790.877 43.288 797.213 45.064 802.205 46.984C807.293 48.808 811.661 51.784 815.309 55.912C819.053 59.944 820.925 65.464 820.925 72.472C820.925 78.52 819.245 83.992 815.885 88.888C812.525 93.784 807.485 97.72 800.765 100.696C794.045 103.576 785.885 105.016 776.285 105.016Z" fill="#E94F37"/>
</svg>
